<svg width="29" height="29" viewBox="0 0 29 29" fill="none" xmlns="http://www.w3.org/2000/svg">
<path d="M14.5001 0.791992C18.1358 0.791992 21.6225 2.23626 24.1933 4.80707C26.7641 7.37788 28.2084 10.8646 28.2084 14.5003C28.2084 18.136 26.7641 21.6228 24.1933 24.1936C21.6225 26.7644 18.1358 28.2087 14.5001 28.2087C10.8644 28.2087 7.37764 26.7644 4.80683 24.1936C2.23601 21.6228 0.791748 18.136 0.791748 14.5003C0.791748 10.8646 2.23601 7.37788 4.80683 4.80707C7.37764 2.23626 10.8644 0.791992 14.5001 0.791992ZM14.5001 26.2503C17.6164 26.2503 20.605 25.0124 22.8086 22.8088C25.0121 20.6053 26.2501 17.6166 26.2501 14.5003C26.2501 11.384 25.0121 8.39537 22.8086 6.19182C20.605 3.98827 17.6164 2.75033 14.5001 2.75033C11.3838 2.75033 8.39513 3.98827 6.19158 6.19182C3.98802 8.39537 2.75008 11.384 2.75008 14.5003C2.75008 17.6166 3.98802 20.6053 6.19158 22.8088C8.39513 25.0124 11.3838 26.2503 14.5001 26.2503ZM13.0313 18.6735L19.2921 14.5003L13.0313 10.3271V18.6735ZM13.3564 8.18862L20.99 13.2783C21.1912 13.4125 21.3561 13.5942 21.4702 13.8073C21.5842 14.0205 21.6439 14.2586 21.6439 14.5003C21.6439 14.7421 21.5842 14.9801 21.4702 15.1933C21.3561 15.4065 21.1912 15.5882 20.99 15.7223L13.3564 20.812C13.1352 20.9595 12.8782 21.0441 12.6126 21.057C12.3471 21.0698 12.0831 21.0103 11.8487 20.8849C11.6144 20.7595 11.4184 20.5728 11.2818 20.3447C11.1452 20.1167 11.073 19.8559 11.073 19.59V9.40866C11.073 9.14283 11.1452 8.88199 11.2818 8.65395C11.4184 8.42591 11.6144 8.23922 11.8487 8.11379C12.0831 7.98836 12.3471 7.9289 12.6126 7.94173C12.8782 7.95456 13.1352 8.03921 13.3564 8.18666V8.18862Z" fill="white"/>
</svg>
