   <svg width="15" height="24" viewBox="0 0 15 24" fill="none" xmlns="http://www.w3.org/2000/svg">
                        <path
                            d="M13.6041 0.979192C13.7973 1.17193 13.9505 1.40086 14.055 1.65289C14.1596 1.90492 14.2134 2.17509 14.2134 2.44794C14.2134 2.72079 14.1596 2.99096 14.055 3.24299C13.9505 3.49502 13.7973 3.72395 13.6041 3.91669L5.52079 12L13.6041 20.0834C13.9937 20.4729 14.2125 21.0012 14.2125 21.5521C14.2125 22.103 13.9937 22.6313 13.6041 23.0209C13.2146 23.4104 12.6863 23.6292 12.1354 23.6292C11.5845 23.6292 11.0562 23.4104 10.6666 23.0209L1.10412 13.4584C0.910988 13.2656 0.757764 13.0367 0.653219 12.7847C0.548675 12.5326 0.494864 12.2625 0.494864 11.9896C0.494864 11.7168 0.548675 11.4466 0.653219 11.1946C0.757764 10.9425 0.910988 10.7136 1.10412 10.5209L10.6666 0.958358C11.4583 0.166692 12.7916 0.166692 13.6041 0.979192Z"
                            fill="white" />
                    </svg>