<svg width="50" height="50" viewBox="0 0 50 50" fill="none" xmlns="http://www.w3.org/2000/svg">
<rect width="50" height="50" rx="25" fill="url(#paint0_linear_243_5072)"/>
<path d="M30.6407 9.00534C30.3583 9.10619 30.2373 9.23393 30.0826 9.56336C30.0087 9.73816 29.9885 10.2021 29.9885 11.9837C29.9885 14.1418 29.9952 14.1956 30.1432 14.451C30.5398 15.1502 31.555 15.1301 31.9248 14.4174C32.0794 14.1216 32.0794 14.1014 32.0592 11.8627L32.0391 9.6037L31.871 9.36166C31.6088 8.97845 31.1113 8.83054 30.6407 9.00534Z" fill="#ECECEC"/>
<path d="M36.2076 11.4722C35.9521 11.5462 33.1822 14.2422 33.0813 14.5111C32.846 15.1498 33.1889 15.8288 33.794 15.9431C34.3385 16.0439 34.4327 15.9767 35.8311 14.6052C37.3975 13.0522 37.5186 12.8975 37.5186 12.4807C37.5186 12.0504 37.337 11.7344 36.9807 11.5462C36.6647 11.3916 36.5303 11.3781 36.2076 11.4722Z" fill="#ECECEC"/>
<path d="M25.0338 11.6007C24.6506 11.8293 24.4825 12.2394 24.5766 12.7235C24.617 12.9386 24.8254 13.1806 25.975 14.3437C26.7213 15.0967 27.4541 15.7757 27.5953 15.8497C28.0592 16.085 28.6441 15.8968 28.9063 15.4329C29.0677 15.1371 29.0878 14.7673 28.9534 14.5051C28.8996 14.4042 28.2071 13.6781 27.4205 12.8915L25.9818 11.4662H25.612C25.37 11.4662 25.175 11.5133 25.0338 11.6007Z" fill="#ECECEC"/>
<path d="M30.5265 17.019C30.3584 17.0795 25.8203 18.6661 20.4418 20.5486C15.0634 22.431 10.5925 24.0177 10.5118 24.0715C9.99417 24.4144 9.95383 25.3085 10.4446 25.6783C10.5656 25.7657 11.7354 26.317 13.0464 26.8952C14.3575 27.4801 15.4466 27.9641 15.46 27.9843C15.4802 27.9978 14.2969 29.2079 12.8313 30.6803C9.94711 33.5712 10.0076 33.4905 10.1219 34.1023C10.1555 34.3242 10.4513 34.6469 12.3943 36.5831C14.2902 38.479 14.66 38.8219 14.8684 38.8555C15.4331 38.9564 15.3794 38.9967 18.2636 36.1192L20.9662 33.4367L21.1142 33.7594C23.3866 38.9093 23.3126 38.7681 23.8639 38.8623C24.2202 38.9228 24.5564 38.8018 24.7917 38.5396C25.0606 38.2303 32.0392 18.2963 32.0324 17.8661C32.019 17.1669 31.2795 16.75 30.5265 17.019Z" fill="#ECECEC"/>
<path d="M34.4865 17.0453C33.8612 17.3747 33.841 18.4101 34.4461 18.7865C34.668 18.921 34.7554 18.9277 37.0143 18.9277C39.0245 18.9277 39.3741 18.9143 39.522 18.8202C39.8044 18.6521 39.959 18.3966 39.9927 18.0403C40.0397 17.5697 39.8649 17.2201 39.5019 17.0453C39.2397 16.9175 39.0985 16.9108 36.974 16.9108C34.8966 16.9175 34.7083 16.9243 34.4865 17.0453Z" fill="#ECECEC"/>
<path d="M33.4978 20.0708C33.081 20.3263 32.9062 20.8507 33.0877 21.328C33.1819 21.5835 35.7366 24.145 36.0661 24.3198C36.819 24.7097 37.7132 23.9366 37.4645 23.1096C37.4039 22.9214 37.0342 22.5046 35.9181 21.3953L34.4525 19.9364H34.0827C33.8407 19.9364 33.6457 19.9834 33.4978 20.0708Z" fill="#ECECEC"/>
<defs>
<linearGradient id="paint0_linear_243_5072" x1="50" y1="0" x2="0" y2="50" gradientUnits="userSpaceOnUse">
<stop stop-color="#00BBFC"/>
<stop offset="0.894784" stop-color="#0075D6"/>
</linearGradient>
</defs>
</svg>
