<svg width="50" height="50" viewBox="0 0 50 50" fill="none" xmlns="http://www.w3.org/2000/svg">
<rect width="50" height="50" rx="25" fill="url(#paint0_linear_243_5030)"/>
<path d="M12.5656 11.9647C11.9772 12.2169 11.4868 12.6511 11.2207 13.1695C10.9264 13.7299 10.9264 35.893 11.2207 36.5794C11.4588 37.1678 12.1453 37.7422 12.8177 37.9384C13.168 38.0504 16.0119 38.0785 21.6858 38.0504L30.0215 38.0084L30.6099 37.6161C30.9321 37.406 31.3243 36.9857 31.4784 36.6775C31.7446 36.1451 31.7586 35.907 31.7306 31.0457L31.6886 25.9742L30.7499 26.8568L29.7973 27.7394V31.55C29.7973 34.7722 29.7693 35.4026 29.5731 35.6688L29.363 35.977H21.3215C13.5042 35.977 13.266 35.963 13.1259 35.7108C12.9298 35.3326 12.9298 14.4864 13.1259 14.1081C13.266 13.856 13.5042 13.842 21.3075 13.842C28.6065 13.842 29.363 13.87 29.5311 14.0661C29.6712 14.2342 29.7553 14.8927 29.7973 16.2096L29.8673 18.1009L30.82 17.2183L31.7586 16.3357V15.0048C31.7586 13.1975 31.3804 12.455 30.1756 11.9507C29.419 11.6285 13.3081 11.6425 12.5656 11.9647Z" fill="white"/>
<path d="M30.7781 19.5998C27.4998 22.752 24.796 25.3998 24.768 25.4838C24.7399 25.5679 25.2443 26.1703 25.8747 26.8007L27.0375 27.9775L27.3877 27.7114C27.6679 27.4732 31.7587 23.5365 37.5447 17.9187C38.3712 17.1061 39.0437 16.3776 39.0437 16.2936C39.0437 16.2095 38.5253 15.6351 37.8949 15.0047L36.7321 13.8559L30.7781 19.5998Z" fill="white"/>
<path d="M14.3867 18.5344V21.6865H20.2847H26.1828L27.2895 20.6078L28.4103 19.5291L28.3682 17.4977L28.3262 15.4523L21.3635 15.4102L14.3867 15.3822V18.5344ZM26.2948 18.5344V19.5851H21.3915H16.4881V18.5344V17.4837H21.3915H26.2948V18.5344Z" fill="white"/>
<path d="M14.4146 24.9375L14.4566 25.9602L17.931 26.0023L21.3913 26.0303V24.9796V23.9288H17.889H14.3726L14.4146 24.9375Z" fill="white"/>
<path d="M23.9554 26.3942C23.7032 26.8705 22.7505 29.8125 22.8066 29.8826C22.9046 29.9666 26.351 28.7478 26.393 28.6077C26.421 28.5377 25.9027 27.9493 25.2582 27.3048C24.2075 26.2681 24.0674 26.17 23.9554 26.3942Z" fill="white"/>
<path d="M14.3867 29.3223V30.373H17.8891H21.3915V29.3223V28.2716H17.8891H14.3867V29.3223Z" fill="white"/>
<path d="M14.3867 33.3848V34.4355H21.3214H28.2562V33.3848V32.3341H21.3214H14.3867V33.3848Z" fill="white"/>
<defs>
<linearGradient id="paint0_linear_243_5030" x1="50" y1="0" x2="0" y2="50" gradientUnits="userSpaceOnUse">
<stop stop-color="#00BBFC"/>
<stop offset="0.894784" stop-color="#0075D6"/>
</linearGradient>
</defs>
</svg>
