<svg width="50" height="50" viewBox="0 0 50 50" fill="none" xmlns="http://www.w3.org/2000/svg">
<rect width="50" height="50" rx="25" fill="url(#paint0_linear_243_5045)"/>
<path d="M22.7492 9.33518C19.7693 9.80639 17.4199 11.9368 16.6169 14.8968C16.4642 15.4808 16.4443 15.6533 16.4443 16.7351C16.451 17.8103 16.4642 17.9961 16.6235 18.5801C16.962 19.8544 17.6589 21.0755 18.5614 21.9781C21.4949 24.9116 26.2202 24.9248 29.1404 22.0047C32.2795 18.8655 31.9942 13.6822 28.5298 10.8882C27.8263 10.3241 26.6251 9.72675 25.7291 9.49446C25.2048 9.36173 24.8663 9.32191 24.1031 9.302C23.5722 9.28872 22.9616 9.302 22.7492 9.33518Z" fill="white"/>
<path d="M31.775 24.0423C30.8459 24.2481 29.7243 25.0179 29.5384 25.5754C29.3128 26.2723 29.7508 26.9691 30.4543 27.0355C30.8259 27.0753 31.191 26.9227 31.4697 26.624C31.5626 26.5245 31.7551 26.3785 31.9011 26.3055C32.1533 26.1661 32.2528 26.1595 33.9253 26.1595H35.684L36.0424 26.3586C36.4273 26.5709 36.726 26.9559 36.8454 27.3872C36.8853 27.5266 36.9118 29.4977 36.9118 32.471C36.9118 37.787 36.9185 37.7339 36.5136 38.2184C36.4074 38.3511 36.1619 38.5369 35.9694 38.6298C35.6243 38.8024 35.6177 38.8024 33.9917 38.8024C32.1798 38.8024 31.9077 38.7559 31.5626 38.3976C31.2241 38.0525 30.952 37.9197 30.587 37.9197C29.9499 37.9131 29.5451 38.2781 29.492 38.9086C29.4654 39.2006 29.492 39.3134 29.638 39.559C29.9565 40.1098 30.8193 40.6607 31.702 40.893C32.2595 41.0323 35.5579 41.039 36.1685 40.893C37.5755 40.5611 38.7037 39.3997 39.0024 37.9728C39.082 37.5879 39.1019 36.6521 39.1019 32.5307C39.1019 29.4446 39.0754 27.3939 39.0356 27.1351C38.8099 25.7679 37.7746 24.56 36.4672 24.1286C36.049 23.9892 35.8699 23.976 34.1244 23.9627C32.6179 23.9428 32.14 23.9627 31.775 24.0423Z" fill="white"/>
<path d="M21.8797 27.2679C18.5547 27.4869 15.1169 28.4094 12.0507 29.9093C10.7499 30.5465 10.4778 30.7588 10.1526 31.4225L10 31.7344V35.0196V38.3048L10.2124 38.7428C10.4712 39.2671 10.8893 39.6719 11.4136 39.9175L11.7919 40.0967L19.7095 40.1166L27.6271 40.1299L27.5807 39.9839C27.4015 39.4264 27.3749 38.8224 27.501 38.2782L27.574 37.9464L27.2156 37.6212C26.7643 37.2031 26.4259 36.6522 26.2865 36.0881L26.1737 35.6501L24.926 35.6103C23.6385 35.5705 23.4725 35.5439 22.8686 35.232C22.4969 35.0395 21.966 34.5484 21.7138 34.1568C21.4085 33.6856 21.2426 33.095 21.2426 32.491C21.236 31.1106 22.0058 30.0222 23.3398 29.5111C23.6915 29.3718 23.884 29.3519 24.9525 29.3253C25.7888 29.3054 26.1737 29.2722 26.187 29.2191C26.3529 28.582 26.5387 28.1307 26.7909 27.7989L27.0763 27.4007L26.771 27.3608C25.5366 27.2016 23.4725 27.1617 21.8797 27.2679Z" fill="white"/>
<path d="M28.8415 28.6486C28.6225 28.7349 28.2973 29.1596 28.2442 29.4118C28.1579 29.8963 28.2508 30.0954 28.9012 30.7524L29.5052 31.3697H26.8372C24.7135 31.3697 24.1228 31.3896 23.9502 31.4626C23.114 31.8209 23.0476 33.0288 23.8441 33.4337C24.083 33.5531 24.2555 33.5598 26.7974 33.5598H29.4985L28.8946 34.1836C28.357 34.7411 28.2907 34.834 28.2442 35.1194C28.1247 35.9423 28.8481 36.5795 29.6313 36.3472C29.8636 36.2808 30.1888 35.9954 31.463 34.7345C33.3014 32.9094 33.4341 32.7036 33.1554 32.0466C33.0492 31.7944 30.4808 29.1464 29.983 28.7747C29.7706 28.6154 29.6645 28.5822 29.3525 28.5889C29.1468 28.5889 28.9211 28.6154 28.8415 28.6486Z" fill="white"/>
<defs>
<linearGradient id="paint0_linear_243_5045" x1="50" y1="0" x2="0" y2="50" gradientUnits="userSpaceOnUse">
<stop stop-color="#00BBFC"/>
<stop offset="0.894784" stop-color="#0075D6"/>
</linearGradient>
</defs>
</svg>
