<svg width="50" height="50" viewBox="0 0 50 50" fill="none" xmlns="http://www.w3.org/2000/svg">
<rect width="50" height="50" rx="25" fill="url(#paint0_linear_243_5058)"/>
<path d="M21.1411 10.0708V12.2861H21.6823H22.2234V10.0708V7.85555H21.6823H21.1411V10.0708Z" fill="white"/>
<path d="M14.8166 11.0652C14.6407 11.285 14.4919 11.4812 14.4885 11.4981C14.4784 11.5218 17.8267 14.2545 17.8876 14.2714C17.918 14.2782 18.5539 13.4834 18.5539 13.4361C18.5539 13.4022 15.192 10.6627 15.1548 10.6661C15.1447 10.6661 14.9925 10.8453 14.8166 11.0652Z" fill="white"/>
<path d="M26.5425 12.0998C25.6158 12.8506 24.8582 13.4763 24.8548 13.4898C24.8514 13.5 25.0002 13.6995 25.1829 13.9295C25.4703 14.2948 25.5211 14.3421 25.5718 14.3049C25.6022 14.2812 26.3768 13.6589 27.2899 12.9182L28.9505 11.5688L28.6123 11.1494C28.4263 10.9194 28.264 10.73 28.2504 10.73C28.2369 10.73 27.4692 11.3456 26.5425 12.0998Z" fill="white"/>
<path d="M21.327 14.5315C20.7216 14.6769 20.1873 15.2248 20.0621 15.8302C20.0351 15.9554 20.0249 17.7039 20.0249 21.7658V27.5188L19.1895 26.6902C17.7014 25.219 16.751 24.4276 15.8209 23.8898C14.8334 23.3182 14.1197 23.21 13.6361 23.5584C13.0882 23.9541 13.122 24.6576 13.7443 25.8988C14.1231 26.6598 14.5324 27.3227 16.2268 29.9404C17.8367 32.4263 18.6484 33.7217 19.6529 35.4026C21.4589 38.4296 23.3293 40.0327 25.8185 40.6956C26.5186 40.8816 27.4859 41 28.2908 41C32.5523 41 36.1746 37.6889 36.5635 33.4409C36.5838 33.211 36.5973 31.2629 36.5973 28.3847C36.5973 24.2821 36.5906 23.6734 36.5466 23.4975C36.3572 22.7737 35.6673 22.2292 34.9367 22.2292C34.2163 22.2292 33.523 22.7805 33.3336 23.4975C33.293 23.6632 33.2829 23.9541 33.2829 25.1615V26.626H32.7248H32.1668V24.5696C32.1668 22.3746 32.1701 22.4084 31.9943 22.0466C31.886 21.8132 31.5343 21.4513 31.2942 21.3228C30.912 21.1199 30.5332 21.0657 30.1544 21.1638C29.4983 21.3363 28.9808 21.9045 28.8861 22.5539C28.8692 22.6824 28.8523 23.4062 28.8523 24.1638V25.5437H28.3111H27.77V23.5482C27.77 22.2258 27.7565 21.4953 27.7328 21.3769C27.6178 20.8324 27.1612 20.298 26.6539 20.112C25.7678 19.7941 24.7498 20.342 24.5062 21.2653C24.4623 21.4378 24.4555 21.8369 24.4555 24.0454V26.626H23.8975H23.3394V21.316C23.3394 17.5822 23.3293 15.9554 23.3022 15.8302C23.2379 15.5292 23.0722 15.2316 22.8321 14.9914C22.4127 14.5721 21.858 14.403 21.327 14.5315Z" fill="white"/>
<path d="M15.1209 17.5857C13.9575 17.8563 13.0037 18.0795 13.0003 18.0829C12.9902 18.0896 13.2269 19.1279 13.2404 19.1415C13.254 19.155 17.4952 18.1742 17.5155 18.1539C17.5425 18.1268 17.3024 17.1088 17.2652 17.102C17.2483 17.0987 16.2844 17.3151 15.1209 17.5857Z" fill="white"/>
<path d="M25.9369 17.7207C25.8693 18.015 25.8186 18.2585 25.8219 18.2653C25.8558 18.2957 30.0868 19.2495 30.1071 19.2292C30.1375 19.1954 30.3574 18.2112 30.3371 18.1909C30.3303 18.1841 29.3867 17.9609 28.2435 17.6971C27.1004 17.4333 26.1399 17.2134 26.1094 17.2033C26.0688 17.1931 26.035 17.2878 25.9369 17.7207Z" fill="white"/>
<defs>
<linearGradient id="paint0_linear_243_5058" x1="50" y1="0" x2="0" y2="50" gradientUnits="userSpaceOnUse">
<stop stop-color="#00BBFC"/>
<stop offset="0.894784" stop-color="#0075D6"/>
</linearGradient>
</defs>
</svg>
