<svg width="34" height="34" viewBox="0 0 34 34" fill="none" xmlns="http://www.w3.org/2000/svg">
<path d="M29.6129 19.742H27.9678V18.0968C27.9678 16.5849 26.7377 15.3549 25.2258 15.3549H22.4839V13.7097C22.4839 13.407 22.2382 13.1614 21.9355 13.1614H17.5484V11.9867C18.4916 11.7416 19.1936 10.8899 19.1936 9.87104C19.1936 8.6613 18.2098 7.67749 17 7.67749C15.7903 7.67749 14.8065 8.6613 14.8065 9.87104C14.8065 10.8899 15.5084 11.7416 16.4516 11.9867V13.1614H12.0645C11.7618 13.1614 11.5161 13.407 11.5161 13.7097V15.3549H8.7742C7.2623 15.3549 6.03227 16.5849 6.03227 18.0968V19.742H4.3871C3.48007 19.742 2.74194 20.4801 2.74194 21.3872V27.9678C2.74194 28.8748 3.48007 29.613 4.3871 29.613H6.03227V31.2581C6.03227 32.77 7.2623 34.0001 8.7742 34.0001H25.2258C26.7377 34.0001 27.9678 32.77 27.9678 31.2581V29.613H29.6129C30.5199 29.613 31.2581 28.8748 31.2581 27.9678V21.3872C31.2581 20.4801 30.5199 19.742 29.6129 19.742ZM15.9032 9.87104C15.9032 9.26617 16.3951 8.77426 17 8.77426C17.6049 8.77426 18.0968 9.26617 18.0968 9.87104C18.0968 10.4759 17.6049 10.9678 17 10.9678C16.3951 10.9678 15.9032 10.4759 15.9032 9.87104ZM4.3871 28.5162C4.08494 28.5162 3.83872 28.27 3.83872 27.9678V21.3872C3.83872 21.085 4.08494 20.8388 4.3871 20.8388H6.03227V28.5162H4.3871ZM12.6129 14.2581H21.3871V15.3549H12.6129V14.2581ZM26.871 31.2581C26.871 32.1652 26.1328 32.9033 25.2258 32.9033H8.7742C7.86717 32.9033 7.12904 32.1652 7.12904 31.2581V18.0968C7.12904 17.1898 7.86717 16.4517 8.7742 16.4517H25.2258C26.1328 16.4517 26.871 17.1898 26.871 18.0968V31.2581ZM30.1613 27.9678C30.1613 28.27 29.9151 28.5162 29.6129 28.5162H27.9678V20.8388H29.6129C29.9151 20.8388 30.1613 21.085 30.1613 21.3872V27.9678Z" fill="#0075D6"/>
<path d="M21.9355 25.2258H12.0645C11.7618 25.2258 11.5161 25.4715 11.5161 25.7742V26.3226C11.5161 29.3464 13.9762 31.8065 17 31.8065C20.0238 31.8065 22.4839 29.3464 22.4839 26.3226V25.7742C22.4839 25.4715 22.2382 25.2258 21.9355 25.2258ZM17 30.7097C14.581 30.7097 12.6129 28.7415 12.6129 26.3226H21.3871C21.3871 28.7415 19.4189 30.7097 17 30.7097Z" fill="#0075D6"/>
<path d="M13.7096 21.9355C13.7096 20.7257 12.7258 19.7419 11.5161 19.7419C10.3063 19.7419 9.32251 20.7257 9.32251 21.9355C9.32251 23.1452 10.3063 24.129 11.5161 24.129C12.7258 24.129 13.7096 23.1452 13.7096 21.9355ZM10.4193 21.9355C10.4193 21.3306 10.9112 20.8387 11.5161 20.8387C12.1209 20.8387 12.6128 21.3306 12.6128 21.9355C12.6128 22.5404 12.1209 23.0323 11.5161 23.0323C10.9112 23.0323 10.4193 22.5404 10.4193 21.9355Z" fill="#0075D6"/>
<path d="M22.4838 19.7419C21.2741 19.7419 20.2903 20.7257 20.2903 21.9355C20.2903 23.1452 21.2741 24.129 22.4838 24.129C23.6936 24.129 24.6774 23.1452 24.6774 21.9355C24.6774 20.7257 23.6936 19.7419 22.4838 19.7419ZM22.4838 23.0323C21.879 23.0323 21.3871 22.5404 21.3871 21.9355C21.3871 21.3306 21.879 20.8387 22.4838 20.8387C23.0887 20.8387 23.5806 21.3306 23.5806 21.9355C23.5806 22.5404 23.0887 23.0323 22.4838 23.0323Z" fill="#0075D6"/>
<path d="M8.38648 11.9038C8.49123 12.0086 8.63161 12.0645 8.77419 12.0645C8.84494 12.0645 8.91623 12.0508 8.98423 12.0228C9.18877 11.9378 9.32258 11.7382 9.32258 11.5161V9.87097H12.6129C13.5199 9.87097 14.2581 9.13284 14.2581 8.22581V1.64516C14.2581 0.738129 13.5199 0 12.6129 0H1.64516C0.738129 0 0 0.738129 0 1.64516V8.22581C0 9.13284 0.738129 9.87097 1.64516 9.87097H6.35361L8.38648 11.9038ZM1.09677 8.22581V1.64516C1.09677 1.343 1.343 1.09677 1.64516 1.09677H12.6129C12.9151 1.09677 13.1613 1.343 13.1613 1.64516V8.22581C13.1613 8.52797 12.9151 8.77419 12.6129 8.77419H8.77419C8.47148 8.77419 8.22581 9.01987 8.22581 9.32258V10.1923L6.96835 8.93487C6.86526 8.83177 6.72597 8.77419 6.58065 8.77419H1.64516C1.343 8.77419 1.09677 8.52852 1.09677 8.22581Z" fill="#0075D6"/>
<path d="M32.3548 2.1936H21.3871C20.4801 2.1936 19.7419 2.93173 19.7419 3.83876V10.4194C19.7419 11.3264 20.4801 12.0646 21.3871 12.0646H24.6774V13.7097C24.6774 13.9313 24.8112 14.1314 25.0158 14.2164C25.0838 14.2444 25.1551 14.2581 25.2258 14.2581C25.3684 14.2581 25.5088 14.2022 25.6135 14.0974L27.6464 12.0646H32.3548C33.2619 12.0646 34 11.3264 34 10.4194V3.83876C34 2.93173 33.2619 2.1936 32.3548 2.1936ZM32.9032 10.4194C32.9032 10.7216 32.657 10.9678 32.3548 10.9678H27.4194C27.274 10.9678 27.1342 11.0254 27.0317 11.1285L25.7742 12.3859V11.5162C25.7742 11.2135 25.5285 10.9678 25.2258 10.9678H21.3871C21.0849 10.9678 20.8387 10.7216 20.8387 10.4194V3.83876C20.8387 3.5366 21.0849 3.29038 21.3871 3.29038H32.3548C32.657 3.29038 32.9032 3.5366 32.9032 3.83876V10.4194Z" fill="#0075D6"/>
<path d="M2.1936 2.1936H12.0646V3.29038H2.1936V2.1936Z" fill="#0075D6"/>
<path d="M2.1936 6.58057H12.0646V7.67734H2.1936V6.58057Z" fill="#0075D6"/>
<path d="M3.29028 4.38721H10.9677V5.48398H3.29028V4.38721Z" fill="#0075D6"/>
<path d="M21.9355 4.38721H31.8065V5.48398H21.9355V4.38721Z" fill="#0075D6"/>
<path d="M21.9355 8.77417H31.8065V9.87094H21.9355V8.77417Z" fill="#0075D6"/>
<path d="M23.0322 6.58057H30.7096V7.67734H23.0322V6.58057Z" fill="#0075D6"/>
</svg>
