<svg width="373" height="50" viewBox="0 0 373 50" fill="none" xmlns="http://www.w3.org/2000/svg">
<g clip-path="url(#clip0_243_14637)">
<path d="M10.5178 17.9241V32.5509" stroke="white" stroke-width="1.98072" stroke-miterlimit="10"/>
<path d="M14.4753 14.9991V35.4768" stroke="white" stroke-width="1.98072" stroke-miterlimit="10"/>
<path d="M19.4219 10.611V39.8647" stroke="white" stroke-width="1.98072" stroke-miterlimit="10"/>
<path d="M23.3799 8.41663V41.3271" stroke="white" stroke-width="1.98072" stroke-miterlimit="10"/>
<path d="M27.3369 1.83472V47.9093" stroke="white" stroke-width="1.98072" stroke-miterlimit="10"/>
<path d="M32.2837 5.49133V44.2525" stroke="white" stroke-width="1.98072" stroke-miterlimit="10"/>
<path d="M36.2415 10.611V39.8647" stroke="white" stroke-width="1.98072" stroke-miterlimit="10"/>
<path d="M40.1985 14.2675V36.2078" stroke="white" stroke-width="1.98072" stroke-miterlimit="10"/>
<path d="M45.1458 1.83472V47.9093" stroke="white" stroke-width="1.98072" stroke-miterlimit="10"/>
<path d="M49.103 7.68542V42.0586" stroke="white" stroke-width="1.98072" stroke-miterlimit="10"/>
<path d="M53.0603 12.0734V38.4017" stroke="white" stroke-width="1.98072" stroke-miterlimit="10"/>
<path d="M58.0073 12.8051V37.6707" stroke="white" stroke-width="1.98072" stroke-miterlimit="10"/>
<path d="M61.9646 15.7302V34.7451" stroke="white" stroke-width="1.98072" stroke-miterlimit="10"/>
<path d="M65.9221 13.5363V36.9392" stroke="white" stroke-width="1.98072" stroke-miterlimit="10"/>
<path d="M70.8687 14.9991V35.4768" stroke="white" stroke-width="1.98072" stroke-miterlimit="10"/>
<path d="M74.8262 14.9991V35.4768" stroke="white" stroke-width="1.98072" stroke-miterlimit="10"/>
<path d="M78.7839 9.14819V40.596" stroke="white" stroke-width="1.98072" stroke-miterlimit="10"/>
<path d="M83.7305 11.3422V39.1332" stroke="white" stroke-width="1.98072" stroke-miterlimit="10"/>
<path d="M87.6885 4.76013V44.984" stroke="white" stroke-width="1.98072" stroke-miterlimit="10"/>
<path d="M91.6458 1.10327V48.6406" stroke="white" stroke-width="1.98072" stroke-miterlimit="10"/>
<path d="M96.592 5.49133V44.2525" stroke="white" stroke-width="1.98072" stroke-miterlimit="10"/>
<path d="M100.55 1.83472V47.9093" stroke="white" stroke-width="1.98072" stroke-miterlimit="10"/>
<path d="M105.497 12.0734V38.4017" stroke="white" stroke-width="1.98072" stroke-miterlimit="10"/>
<path d="M109.454 16.4617V34.0139" stroke="white" stroke-width="1.98072" stroke-miterlimit="10"/>
<path d="M113.412 13.5363V36.9392" stroke="white" stroke-width="1.98072" stroke-miterlimit="10"/>
<path d="M118.358 7.68542V42.0586" stroke="white" stroke-width="1.98072" stroke-miterlimit="10"/>
<path d="M122.316 0.371948V49.3719" stroke="white" stroke-width="1.98072" stroke-miterlimit="10"/>
<path d="M126.273 0.371948V49.3719" stroke="white" stroke-width="1.98072" stroke-miterlimit="10"/>
<path d="M131.22 5.49133V44.2525" stroke="white" stroke-width="1.98072" stroke-miterlimit="10"/>
<path d="M135.177 10.611V39.8647" stroke="white" stroke-width="1.98072" stroke-miterlimit="10"/>
<path d="M139.135 17.1929V33.2824" stroke="white" stroke-width="1.98072" stroke-miterlimit="10"/>
<path d="M144.082 17.9241V32.5509" stroke="white" stroke-width="1.98072" stroke-miterlimit="10"/>
<path d="M148.039 14.9991V35.4768" stroke="white" stroke-width="1.98072" stroke-miterlimit="10"/>
<path d="M151.997 10.611V39.8647" stroke="white" stroke-width="1.98072" stroke-miterlimit="10"/>
<path d="M156.943 8.41663V41.3271" stroke="white" stroke-width="1.98072" stroke-miterlimit="10"/>
<path d="M160.901 1.83472V47.9093" stroke="white" stroke-width="1.98072" stroke-miterlimit="10"/>
<path d="M164.859 5.49133V44.2525" stroke="white" stroke-width="1.98072" stroke-miterlimit="10"/>
<path d="M169.805 10.611V39.8647" stroke="white" stroke-width="1.98072" stroke-miterlimit="10"/>
<path d="M173.762 14.2675V36.2078" stroke="white" stroke-width="1.98072" stroke-miterlimit="10"/>
<path d="M177.72 1.83472V47.9093" stroke="white" stroke-width="1.98072" stroke-miterlimit="10"/>
<path d="M182.667 7.68542V42.0586" stroke="white" stroke-width="1.98072" stroke-miterlimit="10"/>
<path d="M186.625 12.0734V38.4017" stroke="white" stroke-width="1.98072" stroke-miterlimit="10"/>
<path d="M190.582 12.8051V37.6707" stroke="white" stroke-width="1.98072" stroke-miterlimit="10"/>
<path d="M195.528 15.7302V34.7451" stroke="white" stroke-width="1.98072" stroke-miterlimit="10"/>
<path d="M199.486 13.5363V36.9392" stroke="white" stroke-width="1.98072" stroke-miterlimit="10"/>
<path d="M203.443 14.9991V35.4768" stroke="white" stroke-width="1.98072" stroke-miterlimit="10"/>
<path d="M208.39 14.9991V35.4768" stroke="white" stroke-width="1.98072" stroke-miterlimit="10"/>
<path d="M212.348 9.14819V40.596" stroke="white" stroke-width="1.98072" stroke-miterlimit="10"/>
<path d="M216.305 11.3422V39.1332" stroke="white" stroke-width="1.98072" stroke-miterlimit="10"/>
<path d="M221.251 4.76013V44.984" stroke="white" stroke-width="1.98072" stroke-miterlimit="10"/>
<path d="M225.209 1.10327V48.6406" stroke="white" stroke-width="1.98072" stroke-miterlimit="10"/>
<path d="M229.167 5.49133V44.2525" stroke="white" stroke-width="1.98072" stroke-miterlimit="10"/>
<path d="M234.114 1.83472V47.9093" stroke="white" stroke-width="1.98072" stroke-miterlimit="10"/>
<path d="M238.071 12.0734V38.4017" stroke="white" stroke-width="1.98072" stroke-miterlimit="10"/>
<path d="M242.028 16.4617V34.0139" stroke="white" stroke-width="1.98072" stroke-miterlimit="10"/>
<path d="M246.975 13.5363V36.9392" stroke="white" stroke-width="1.98072" stroke-miterlimit="10"/>
<path d="M250.933 7.68542V42.0586" stroke="white" stroke-width="1.98072" stroke-miterlimit="10"/>
<path d="M254.89 0.371948V49.3719" stroke="white" stroke-width="1.98072" stroke-miterlimit="10"/>
<path d="M259.837 0.371948V49.3719" stroke="white" stroke-width="1.98072" stroke-miterlimit="10"/>
<path d="M263.795 5.49133V44.2525" stroke="white" stroke-width="1.98072" stroke-miterlimit="10"/>
<path d="M267.751 10.611V39.8647" stroke="white" stroke-width="1.98072" stroke-miterlimit="10"/>
<path d="M272.699 17.1929V33.2824" stroke="white" stroke-width="1.98072" stroke-miterlimit="10"/>
<path d="M276.656 17.9241V32.5509" stroke="white" stroke-width="1.98072" stroke-miterlimit="10"/>
<path d="M281.603 14.9991V35.4768" stroke="white" stroke-width="1.98072" stroke-miterlimit="10"/>
<path d="M285.56 10.611V39.8647" stroke="white" stroke-width="1.98072" stroke-miterlimit="10"/>
<path d="M289.518 8.41663V41.3271" stroke="white" stroke-width="1.98072" stroke-miterlimit="10"/>
<path d="M294.465 1.83472V47.9093" stroke="white" stroke-width="1.98072" stroke-miterlimit="10"/>
<path d="M298.422 5.49133V44.2525" stroke="white" stroke-width="1.98072" stroke-miterlimit="10"/>
<path d="M302.38 10.611V39.8647" stroke="white" stroke-width="1.98072" stroke-miterlimit="10"/>
<path d="M307.327 14.2675V36.2078" stroke="white" stroke-width="1.98072" stroke-miterlimit="10"/>
<path d="M311.284 1.83472V47.9093" stroke="white" stroke-width="1.98072" stroke-miterlimit="10"/>
<path d="M315.242 7.68542V42.0586" stroke="white" stroke-width="1.98072" stroke-miterlimit="10"/>
<path d="M320.188 12.0734V38.4017" stroke="white" stroke-width="1.98072" stroke-miterlimit="10"/>
<path d="M324.146 12.8051V37.6707" stroke="white" stroke-width="1.98072" stroke-miterlimit="10"/>
<path d="M328.103 15.7302V34.7451" stroke="white" stroke-width="1.98072" stroke-miterlimit="10"/>
<path d="M333.05 13.5363V36.9392" stroke="white" stroke-width="1.98072" stroke-miterlimit="10"/>
<path d="M337.007 14.9991V35.4768" stroke="white" stroke-width="1.98072" stroke-miterlimit="10"/>
<path d="M340.965 14.9991V35.4768" stroke="white" stroke-width="1.98072" stroke-miterlimit="10"/>
<path d="M345.911 9.14819V40.596" stroke="white" stroke-width="1.98072" stroke-miterlimit="10"/>
<path d="M349.869 4.02869V45.7152" stroke="white" stroke-width="1.98072" stroke-miterlimit="10"/>
<path d="M353.826 4.76013V44.984" stroke="white" stroke-width="1.98072" stroke-miterlimit="10"/>
<path d="M358.773 9.14819V40.596" stroke="white" stroke-width="1.98072" stroke-miterlimit="10"/>
<path d="M362.73 18.6555V31.8197" stroke="white" stroke-width="1.98072" stroke-miterlimit="10"/>
<path d="M0.624023 25.2378H372.624" stroke="white" stroke-width="1.98072" stroke-miterlimit="10"/>
</g>
<defs>
<clipPath id="clip0_243_14637">
<rect width="372" height="49" fill="white" transform="translate(0.624023 0.371948)"/>
</clipPath>
</defs>
</svg>
