<svg width="60" height="60" viewBox="0 0 60 60" fill="none" xmlns="http://www.w3.org/2000/svg">
<path d="M20.8835 1.20306C15.9837 2.91561 12.8916 4.81844 9.13355 8.38623L5.66089 11.7162L7.37343 13.0482L9.08598 14.4277L10.8461 12.4297C14.0333 8.7668 19.0282 5.91256 24.7367 4.53301C36.1537 1.72634 49.521 8.81437 53.9927 20.041C56.7518 27.0339 56.7518 33.0754 53.9451 40.0207C52.9937 42.4468 50.9482 45.7292 50.4249 45.7292C50.2346 45.7292 49.854 44.7302 49.6637 43.4934L49.2356 41.3051L47.2852 44.1118C42.766 50.629 40.0545 54.6249 39.1982 55.9093C38.3419 57.2413 38.3419 57.2889 39.3409 56.9559C40.1972 56.6704 49.188 55.1006 53.2791 54.4822C56.8469 53.9589 57.1799 53.8162 56.5139 53.1978C56.1809 52.8648 55.1344 52.1037 54.183 51.4852L52.4704 50.3435L54.1354 48.1553C56.1334 45.5389 58.3692 40.9721 59.273 37.547C60.1293 34.2171 60.1293 25.7495 59.2255 22.4196C56.5139 12.1919 47.8085 3.48646 37.5808 0.774929C33.347 -0.366768 24.7367 -0.128914 20.8835 1.20306Z" fill="white"/>
<path d="M28.8752 8.43366C28.6849 8.62395 28.5422 12.715 28.5422 17.4721C28.5422 26.1299 28.5422 26.1775 27.3529 27.3668C24.1181 30.6016 28.5422 35.8819 32.1576 33.1228C32.8711 32.5996 34.7264 32.4093 40.4349 32.4093C48.3316 32.3617 49.4733 32.0763 49.4733 30.0307C49.4733 27.9852 48.3316 27.6998 40.4349 27.6522C35.1069 27.6522 32.8236 27.4619 32.2527 26.9862C31.5391 26.4629 31.3964 25.2261 31.3013 17.3769C31.1586 8.71909 31.111 8.38609 30.2072 8.24338C29.6363 8.14824 29.0655 8.24338 28.8752 8.43366Z" fill="white"/>
<path d="M2.37853 17.757C1.18926 20.3734 1.18926 20.8491 2.52124 21.1345C3.09209 21.2297 3.94836 21.5151 4.3765 21.7054C4.99492 21.9432 5.37548 21.6103 5.89876 20.2783C6.94531 17.8046 6.89774 17.4716 4.99492 16.5678L3.28237 15.7591L2.37853 17.757Z" fill="white"/>
<path d="M0 27.1762V29.5547H1.85526C3.66294 29.5547 3.66294 29.5072 3.94836 27.5568C4.23379 25.2734 3.85322 24.7977 1.56983 24.7977C0 24.7977 0 24.7977 0 27.1762Z" fill="white"/>
<path d="M0.808621 34.6447C0.285343 34.7874 0.0474901 35.1679 0.190202 35.6437C0.332914 36.0718 0.665909 37.3562 0.951333 38.4979C1.56975 40.8764 2.33088 41.3046 4.28128 40.4959C5.85111 39.8299 5.94625 39.6396 5.28026 38.0222C5.04241 37.4038 4.70941 36.3572 4.5667 35.5961C4.28128 34.3117 3.23472 34.0263 0.808621 34.6447Z" fill="white"/>
<path d="M5.66099 44.4445L3.90088 45.4911L5.328 47.5366C6.08913 48.6308 6.85026 49.5346 6.99297 49.5346C7.13568 49.5346 7.99196 49.0113 8.84823 48.3453C10.2753 47.2512 10.3705 47.0609 9.75207 46.2998C9.3715 45.8717 8.70551 45.0154 8.22981 44.4445L7.37354 43.398L5.66099 44.4445Z" fill="white"/>
<path d="M11.2747 51.0568C9.80005 52.7218 10.0379 53.2927 12.7494 54.8625L14.129 55.6712L15.1755 53.8159L16.1745 51.9607L14.7474 51.152C13.9863 50.6763 13.3203 50.1054 13.3203 49.9152C13.3203 49.2016 12.6067 49.5822 11.2747 51.0568Z" fill="white"/>
<path d="M19.6468 55.5764C18.5051 58.0025 18.743 58.3355 22.5011 59.3345C25.2602 60.0481 25.6883 59.8102 25.6883 57.289C25.6883 55.957 25.498 55.6716 24.4039 55.4337C23.6428 55.291 22.5962 54.958 21.9778 54.7201C20.408 54.1017 20.2653 54.1493 19.6468 55.5764Z" fill="white"/>
<path d="M31.5394 56.0516C29.4939 56.2419 29.4939 56.2419 29.4939 58.1447V60H32.3481H35.2499L34.917 58.1923C34.5364 56.1943 34.3461 55.6711 33.8704 55.8138C33.6801 55.8614 32.6336 55.9565 31.5394 56.0516Z" fill="white"/>
</svg>
