<svg width="30" height="30" viewBox="0 0 30 30" fill="none" xmlns="http://www.w3.org/2000/svg">
<path d="M14.991 7.76807C13.1739 7.76807 11.7202 9.22173 11.7202 11.0388C11.7202 12.8559 13.1739 14.3096 14.991 14.3096C16.8081 14.3096 18.2618 12.8559 18.2618 11.0388C18.2618 9.22173 16.8081 7.76807 14.991 7.76807ZM14.991 13.401C13.6736 13.401 12.6288 12.3562 12.6288 11.0388C12.6288 9.72146 13.6736 8.67662 14.991 8.67662C16.2629 8.67662 17.3532 9.72146 17.3532 11.0388C17.3532 12.3562 16.3084 13.401 14.991 13.401Z" fill="#0075D6"/>
<path d="M4.40637 5.90551C6.04175 5.90551 7.35912 4.58814 7.35912 2.95275C7.35912 1.31737 6.04175 0 4.40637 0C2.77098 0 1.45361 1.31737 1.45361 2.95275C1.45361 4.58814 2.77098 5.90551 4.40637 5.90551ZM4.40637 0.908553C5.54207 0.908553 6.45057 1.81711 6.45057 2.95275C6.45057 4.0884 5.54207 4.99701 4.40637 4.99701C3.27066 4.99701 2.36217 4.08846 2.36217 2.95275C2.36217 1.81705 3.27066 0.908553 4.40637 0.908553Z" fill="#0075D6"/>
<path d="M25.5756 5.90551C27.2109 5.90551 28.5283 4.58814 28.5283 2.95275C28.5283 1.31737 27.1654 0 25.5756 0C23.9856 0 22.6228 1.31737 22.6228 2.95275C22.6228 4.58814 23.9402 5.90551 25.5756 5.90551ZM25.5756 0.908553C26.7112 0.908553 27.6198 1.81711 27.6198 2.95275C27.6198 4.0884 26.7112 4.99695 25.5756 4.99695C24.4398 4.99695 23.5314 4.0884 23.5314 2.95275C23.5314 1.81711 24.4398 0.908553 25.5756 0.908553Z" fill="#0075D6"/>
<path d="M7.35912 18.8522C7.35912 17.2168 6.04175 15.8994 4.40637 15.8994C2.77098 15.8994 1.45361 17.2168 1.45361 18.8522C1.45361 20.4876 2.77098 21.8049 4.40637 21.8049C6.04175 21.8049 7.35912 20.4875 7.35912 18.8522ZM2.36217 18.8522C2.36217 17.7165 3.27072 16.808 4.40637 16.808C5.54201 16.808 6.45057 17.7165 6.45057 18.8522C6.45057 19.9878 5.54201 20.8964 4.40637 20.8964C3.27072 20.8964 2.36217 19.9878 2.36217 18.8522Z" fill="#0075D6"/>
<path d="M5.45132 22.123H3.40706C1.49909 22.123 0 23.6221 0 25.4847V26.5295C0 26.8021 0.181723 26.9838 0.454247 26.9838H8.35858C8.63117 26.9838 8.81283 26.802 8.81283 26.5295V25.4847C8.81289 23.6221 7.3138 22.123 5.45132 22.123ZM7.90434 26.0752H0.908614V25.4847C0.908614 24.1219 1.99889 22.9862 3.40712 22.9862H5.45132C6.81412 22.9862 7.9044 24.1219 7.9044 25.4847V26.0752H7.90434Z" fill="#0075D6"/>
<path d="M22.6228 18.8522C22.6228 20.4876 23.9402 21.8049 25.5756 21.8049C27.2109 21.8049 28.5283 20.4876 28.5283 18.8522C28.5283 17.2168 27.1655 15.8994 25.5756 15.8994C23.9857 15.8994 22.6228 17.2168 22.6228 18.8522ZM27.6198 18.8522C27.6198 19.9879 26.7113 20.8964 25.5756 20.8964C24.4399 20.8964 23.5314 19.9878 23.5314 18.8522C23.5314 17.7165 24.44 16.808 25.5756 16.808C26.6658 16.8079 27.6198 17.7165 27.6198 18.8522Z" fill="#0075D6"/>
<path d="M29.9819 10.6755V9.63062C29.9819 7.76808 28.4828 6.22356 26.5748 6.22356H24.5306C23.077 6.22356 21.805 7.17754 21.3507 8.44948C19.8971 6.40528 17.5349 5.17871 14.9455 5.17871C12.4016 5.17871 10.0393 6.40522 8.58568 8.40405C8.086 7.13211 6.85943 6.17813 5.40577 6.17813H3.407C1.49909 6.22362 0 7.72271 0 9.58525V10.6301C0 10.9027 0.181723 11.0843 0.454247 11.0843H7.35917V11.1298C6.17809 15.9905 9.85767 20.7603 14.9909 20.7603C16.2629 20.7603 17.5349 20.4423 18.6705 19.8518L19.7153 21.578L18.398 22.3503C18.3071 22.3957 18.2163 22.532 18.1708 22.6229C18.1254 22.7592 18.1708 22.85 18.2163 22.9863L21.9867 29.0735C22.5772 30.0275 23.7584 30.2546 24.6669 29.7095L25.4846 29.2098C26.2115 28.7555 26.6203 27.8924 26.3477 27.0293H29.5277C29.8002 27.0293 29.9819 26.8476 29.9819 26.5751V25.5302C29.9819 23.6222 28.4828 22.1231 26.5748 22.1231H24.5306C24.1672 22.1231 23.8492 22.1686 23.5312 22.2594L22.4409 20.4878C22.3047 20.2606 22.0321 20.2152 21.805 20.3515L20.4876 21.1237L19.3973 19.3975C22.1684 17.4895 23.3041 14.1734 22.5318 11.1298H29.5276C29.8002 11.1298 29.9819 10.948 29.9819 10.6755ZM24.5306 22.9862H26.5748C27.9376 22.9862 29.0733 24.1219 29.0733 25.4847V26.0753H25.8934L24.0309 23.0316C24.2126 22.9862 24.3489 22.9862 24.5306 22.9862ZM21.8958 21.3054L25.3938 26.9838C25.6663 27.4835 25.5301 28.1195 25.0303 28.4375L24.2126 28.9371C23.7129 29.2097 23.0769 29.0734 22.759 28.5738L19.261 22.8954L21.8958 21.3054ZM7.63175 10.1758H0.908553V9.58525C0.908553 8.22245 1.99883 7.08674 3.40706 7.08674H5.45126C6.81406 7.08674 7.90434 8.17702 7.90434 9.58525C7.81348 9.76691 7.72261 9.99406 7.63175 10.1758ZM18.6251 18.8978C16.1266 20.3515 12.9922 20.1243 10.7208 18.3981C11.175 16.7628 12.6742 15.5817 14.4004 15.5817H15.536C17.2623 15.5817 18.8068 16.7628 19.261 18.4436C19.0339 18.6252 18.8522 18.7615 18.6251 18.8978ZM20.0334 17.7167C19.352 15.8996 17.5803 14.6276 15.5815 14.6276H14.4459C12.4471 14.6276 10.6754 15.8996 9.99403 17.7167C5.76934 13.3103 8.90375 6.08732 14.991 6.08732C17.4441 6.08732 19.67 7.31383 20.942 9.40352C22.6227 12.1291 22.1684 15.5362 20.0334 17.7167ZM29.0733 10.2212H22.3047C22.2139 10.0395 22.1684 9.85783 22.0776 9.63068C22.0776 8.22245 23.1678 7.13217 24.5306 7.13217H26.5748C27.9376 7.13217 29.0733 8.26782 29.0733 9.63068V10.2212Z" fill="#0075D6"/>
</svg>
