<svg width="54" height="54" viewBox="0 0 54 54" fill="none" xmlns="http://www.w3.org/2000/svg">
<g clip-path="url(#clip0_243_5167)">
<path d="M28.8001 44.3449L19.6364 42.2995C19.391 42.2177 19.0637 42.2995 18.9001 42.5449C18.4091 43.0358 18.0001 43.5268 17.6728 44.1813C15.9546 43.4449 14.3182 42.3813 13.0091 40.9904C11.6182 39.5995 10.5546 38.0449 9.81824 36.3268C10.391 35.9995 10.9637 35.5904 11.4546 35.0995C11.6182 34.9358 11.7001 34.6086 11.7001 34.3631L9.6546 25.2813C9.6546 24.954 9.40915 24.7086 9.16369 24.6268C5.07278 22.9904 0.490967 26.0995 0.490967 30.5995C0.490967 43.2813 10.8001 53.5904 23.4819 53.5904C27.9819 53.5904 31.091 49.0086 29.5364 44.9177C29.3728 44.6722 29.1273 44.4268 28.8001 44.3449ZM23.4001 51.954C11.6182 51.954 2.04551 42.3813 2.04551 30.5995C2.04551 27.4086 5.1546 25.1177 8.10006 26.0177L9.98188 34.2813C9.57278 34.6086 9.08188 34.9358 8.59097 35.0995C8.18188 35.2631 7.93642 35.754 8.10006 36.1631C8.91824 38.454 10.2273 40.4177 11.9455 42.1358C13.6637 43.854 15.7091 45.1631 17.9182 45.9813C18.3273 46.1449 18.8182 45.8995 18.9819 45.4904C19.1455 44.9995 19.4728 44.5086 19.8001 44.0177L28.0637 45.8995C28.8819 48.7631 26.6728 51.954 23.4001 51.954Z" fill="white"/>
<path d="M36.491 12.2721C37.4728 11.454 38.0456 10.2267 38.0456 8.83579C38.0456 6.29942 36.0001 4.25397 33.4637 4.25397C30.9274 4.25397 28.8819 6.29942 28.8819 8.83579C28.8819 10.2267 29.5365 11.454 30.4365 12.2721C26.8365 13.4994 24.1365 16.9358 24.1365 21.0267C24.1365 23.9721 28.8001 25.3631 33.3819 25.3631C37.9637 25.3631 42.6274 24.054 42.6274 21.0267C42.791 17.0176 40.1728 13.5812 36.491 12.2721ZM30.5183 8.83579C30.5183 7.19942 31.8274 5.89033 33.4637 5.89033C35.1001 5.89033 36.4092 7.19942 36.4092 8.83579C36.4092 10.4721 35.1001 11.7812 33.4637 11.7812C31.8274 11.7812 30.5183 10.4721 30.5183 8.83579ZM33.4637 23.7267C29.2092 23.7267 25.8547 22.5812 25.8547 21.0267C25.8547 16.854 29.291 13.4176 33.4637 13.4176C37.6365 13.4176 41.0728 16.854 41.0728 21.0267C41.1547 22.5812 37.8001 23.7267 33.4637 23.7267Z" fill="white"/>
<path d="M48.3546 0.408569H18.6546C15.7909 0.408569 13.4182 2.7813 13.4182 5.64493V23.9722C13.4182 26.8358 15.7909 29.2086 18.6546 29.2086H19.2273V34.6904C19.2273 35.4268 20.1273 35.754 20.6182 35.2631L26.4273 29.2086H48.3546C51.2182 29.2086 53.5909 26.8358 53.5909 23.9722V5.64493C53.5909 2.7813 51.2182 0.408569 48.3546 0.408569ZM51.9546 23.9722C51.9546 25.9358 50.3182 27.5722 48.3546 27.5722H26.1C25.8546 27.5722 25.6909 27.654 25.5273 27.8177L20.8637 32.6449V28.3904C20.8637 27.8995 20.5364 27.5722 20.0455 27.5722H18.6546C16.6909 27.5722 15.0546 25.9358 15.0546 23.9722V5.64493C15.0546 3.6813 16.6909 2.04493 18.6546 2.04493H48.3546C50.3182 2.04493 51.9546 3.6813 51.9546 5.64493V23.9722Z" fill="white"/>
</g>
<defs>
<clipPath id="clip0_243_5167">
<rect width="54" height="54" fill="white" transform="translate(0 -0.000488281)"/>
</clipPath>
</defs>
</svg>
