<svg width="50" height="50" viewBox="0 0 50 50" fill="none" xmlns="http://www.w3.org/2000/svg">
<path d="M20.2728 0.0646172C18.6874 0.283901 16.4133 1.08365 14.9839 1.92209C8.01861 5.99821 5.51058 14.6664 9.24013 21.7738C10.6696 24.4955 13.2686 26.998 16.0105 28.275L16.8292 28.6619L15.2958 29.1521C7.86267 31.5642 2.1319 37.73 0.26063 45.3018C-0.103228 46.7852 -0.0902331 47.2109 0.325605 47.8945C1.01434 49.0167 2.9116 49.0167 3.63931 47.9074C3.75627 47.7397 3.99018 47.0303 4.1721 46.3466C6.01739 39.0973 11.7222 33.7313 19.1293 32.2608C20.6887 31.9512 24.2233 31.9512 25.8996 32.2608C26.8093 32.4414 27.2121 32.4543 27.589 32.3511C28.0828 32.2221 28.6286 31.7577 28.9015 31.2289C29.2133 30.6226 29.0184 29.5907 28.4986 29.036C28.3427 28.8683 28.2387 28.7135 28.2777 28.6877C28.3037 28.6619 28.7975 28.404 29.3693 28.1202C32.0982 26.7529 34.4503 24.4568 35.8538 21.7738C38.3878 16.9366 38.1149 11.2094 35.126 6.66896C32.8649 3.212 29.0834 0.761169 24.977 0.103313C24.1973 -0.0127754 21.0785 -0.0385742 20.2728 0.0646172ZM24.86 4.17943C28.9015 5.01788 32.1242 8.12656 33.2158 12.2543C33.6056 13.7119 33.6056 15.9692 33.2158 17.4526C32.1762 21.3223 29.3953 24.1602 25.4448 25.334C24.4572 25.6306 24.0673 25.6822 22.5469 25.6822C21.0265 25.6822 20.6367 25.6306 19.6491 25.334C15.6986 24.1602 12.9177 21.3352 11.8781 17.4526C11.4883 16.0079 11.4883 13.6087 11.8781 12.1769C13.4115 6.46257 19.0643 2.97982 24.86 4.17943Z" fill="white"/>
<path d="M37.0365 28.1715C36.8286 28.2102 36.3348 28.2876 35.9709 28.365C35.3082 28.494 35.2822 28.5198 35.2822 28.9196C35.2822 29.7323 34.9183 30.6223 34.3855 31.0996C33.5019 31.8864 32.4753 32.0025 31.3577 31.435C31.0978 31.306 30.8119 31.1899 30.7339 31.1899C30.3311 31.1899 28.7457 33.4343 28.1609 34.8145C27.5242 36.3495 27.5242 36.3366 28.2779 36.9042C30.0712 38.2586 29.9412 40.0645 27.953 41.4447L27.5762 41.7155L27.8101 42.4121C28.1869 43.5859 28.9796 45.0177 29.7723 45.9981C30.1752 46.514 30.552 46.9268 30.604 46.9268C30.669 46.9268 31.0198 46.7849 31.4097 46.6043C32.5532 46.0754 33.6318 46.2173 34.4115 47.0042C34.9443 47.533 35.1262 47.9458 35.2432 48.8746L35.3471 49.7001L36.2568 49.8549C37.4133 50.0484 39.2456 50.0484 40.4152 49.8549L41.3118 49.7001L41.4808 48.7327C41.6497 47.7007 41.8446 47.3525 42.5983 46.7462C43.313 46.1786 44.2097 46.1399 45.2883 46.6172L46.1069 46.9784L46.5488 46.4753C47.3675 45.5208 48.1601 44.218 48.615 43.1215C48.8619 42.5153 49.0568 41.9477 49.0568 41.8445C49.0568 41.7413 48.7709 41.4576 48.4071 41.1996C47.3675 40.4643 46.9776 39.4453 47.2895 38.3489C47.4974 37.6781 48.0952 36.9816 48.7969 36.6075C49.1738 36.4011 49.0958 36.027 48.3421 34.4404C47.8093 33.3182 47.3545 32.6346 46.4058 31.5252L46.094 31.1512L45.1843 31.5124C44.0797 31.938 43.378 31.8864 42.5723 31.3189C41.9226 30.8545 41.5717 30.1966 41.4548 29.2292L41.3638 28.494L40.6881 28.3521C39.9603 28.1973 37.6472 28.0812 37.0365 28.1715ZM39.2326 31.5124C40.1033 33.4214 42.4554 34.75 44.5086 34.5049C45.1583 34.4275 45.1713 34.4275 45.4962 34.9306L45.8341 35.4337L45.5092 35.8594C44.0927 37.7297 44.0667 40.2708 45.4312 42.1412L45.8211 42.683L45.5482 43.1602L45.2753 43.6375H44.0148C43.0142 43.6504 42.5983 43.7149 42.0005 43.9471C40.961 44.347 39.8174 45.4305 39.2976 46.4882C38.8948 47.3009 38.8818 47.3138 38.349 47.3138C37.8162 47.3138 37.8032 47.3009 37.4523 46.5398C36.9715 45.5208 35.9839 44.5534 34.9053 44.0374C34.1256 43.6762 33.9307 43.6375 32.7352 43.6375H31.4227L31.1368 43.1602L30.8639 42.6701L31.2927 42.0638C32.6832 40.1032 32.6052 37.82 31.0848 35.6659C30.9549 35.4853 30.9808 35.3563 31.1888 34.9564C31.4487 34.4791 31.4617 34.4791 32.1764 34.5178C34.4115 34.6468 36.4387 33.5117 37.3744 31.6284C37.7902 30.8029 37.7902 30.8029 38.349 30.8029C38.8948 30.8029 38.9078 30.8158 39.2326 31.5124Z" fill="white"/>
<path d="M37.2959 34.5308C35.9314 34.8791 34.8788 35.7046 34.2421 36.8913C33.8522 37.6008 33.7873 37.8459 33.7483 38.8649C33.7093 39.8194 33.7483 40.1548 33.9822 40.7611C34.346 41.7414 35.3337 42.812 36.2953 43.2764C36.958 43.5989 37.1789 43.6376 38.3355 43.6376C39.466 43.6376 39.7259 43.5989 40.3497 43.3022C42.247 42.4122 43.3645 40.2322 42.9487 38.207C42.5069 36.0658 40.7915 34.5824 38.6214 34.4792C38.1146 34.4534 37.5168 34.4663 37.2959 34.5308ZM39.1022 37.3041C39.7909 37.5879 40.2717 38.3102 40.2717 39.0713C40.2717 40.516 38.6214 41.4834 37.3869 40.7353C36.1004 39.9613 36.1523 38.0781 37.4648 37.3815C38.0366 37.0848 38.5174 37.059 39.1022 37.3041Z" fill="white"/>
</svg>
