<svg width="50" height="50" viewBox="0 0 50 50" fill="none" xmlns="http://www.w3.org/2000/svg">
<path d="M12.1875 4.65848C12.1875 7.20507 12.25 9.31687 12.3437 9.31687C12.4062 9.31687 13.1875 9.16159 14.0625 8.97526L15.625 8.63364V5.86966V3.10568H31.0937H46.5625V12.4225V21.7393H44.4687H42.3437L39.9375 24.1306L37.5 26.5529V24.1306V21.7393H34.2187H30.9375V23.2921V24.8448H32.5H34.0625V29.348C34.0625 31.8324 34.1562 33.8511 34.3125 33.8511C34.4375 33.8511 36.5625 31.8324 39.0625 29.348L43.5937 24.8448H46.7812H50V12.4225V8.7738e-05H31.0937H12.1875V4.65848Z" fill="white"/>
<path d="M14 12.826C11.2812 13.6024 8.65625 15.7763 7.25 18.4782C6.59375 19.7205 6.40625 20.59 6.3125 22.8882C6.1875 25.559 6.25 25.8695 7.125 27.7018C7.625 28.7888 8.625 30.2484 9.34375 30.9627L10.6562 32.236L8.71875 33.2608C3.9375 35.8074 0 41.8323 0 46.5838C0 47.9503 0.15625 48.323 0.90625 49.0994L1.8125 50H17.0312H32.25L33.1562 49.0994C33.9062 48.323 34.0625 47.9193 34.0625 46.677C34.0625 41.7702 30.1875 35.8074 25.4062 33.2919L23.4687 32.2671L24.7187 31.0248C25.4375 30.3105 26.4375 28.8198 26.9687 27.7018C27.7812 25.9938 27.9375 25.2795 27.9375 23.2919C27.9375 21.3043 27.7812 20.6211 26.9687 18.913C25.1562 15.0621 21.75 12.7329 17.6562 12.5465C16.4375 12.4844 14.8125 12.6086 14 12.826ZM19.8125 16.149C22.8437 17.2981 24.6875 20 24.6875 23.354C24.6875 25.559 24.1875 26.8633 22.6875 28.5093C19.5625 31.9565 14.2187 31.8012 11.125 28.1987C9.75 26.6149 9.28125 25 9.4375 22.4844C9.5625 20.3105 10.5 18.6024 12.3437 17.236C14.6562 15.4658 17.0312 15.1242 19.8125 16.149ZM19.7187 34.472C22.1875 34.9379 24.9375 36.3975 26.8125 38.2609C28.6562 40.0621 30.5 43.4472 30.8125 45.559L31.0312 46.8944H17.0312H3.03125L3.25 45.559C3.59375 43.2298 5.4375 39.9689 7.5 38.1056C11.0312 34.8447 15.125 33.6335 19.7187 34.472Z" fill="white"/>
</svg>
