<svg width="56" height="56" viewBox="0 0 56 56" fill="none" xmlns="http://www.w3.org/2000/svg">
<path d="M25.931 0.249044C24.3079 0.681013 23.3523 1.23079 22.0957 2.47433C20.8783 3.67861 20.2107 4.81743 19.818 6.33587C19.5562 7.35688 19.5562 9.52981 19.8311 10.5246C20.1191 11.6635 20.826 13.0379 21.4935 13.7971L22.0826 14.4516L20.9438 15.0014C18.2734 16.2973 16.4146 18.5619 15.6947 21.3893C15.4198 22.4889 15.3413 24.1905 15.5638 24.6094C15.9172 25.2639 15.6162 25.2508 27.9992 25.2508C40.3823 25.2508 40.0813 25.2639 40.4347 24.6094C40.6572 24.1905 40.5787 22.4889 40.3038 21.3893C39.5969 18.6535 37.712 16.2842 35.2642 15.1192C34.7667 14.8705 34.2431 14.6349 34.1122 14.5956C33.9028 14.5302 33.9421 14.4385 34.4133 13.9019C35.7223 12.4096 36.3768 10.577 36.3768 8.43026C36.3768 6.87255 36.1674 5.93008 35.4998 4.56873C34.8846 3.28591 33.1829 1.57113 31.9262 0.929722C30.0675 0.0134258 27.8291 -0.248373 25.931 0.249044ZM30.2507 3.44299C31.3895 3.97968 32.3582 4.94833 32.9211 6.07407C34.5442 9.37274 32.5415 13.195 28.8108 13.8888C26.795 14.2684 24.3472 13.0903 23.2476 11.2053C21.5328 8.27318 22.9465 4.45092 26.2059 3.24664C27.2531 2.85394 29.2428 2.94557 30.2507 3.44299ZM32.9996 17.2791C34.8322 17.9859 36.2066 19.2164 36.9659 20.8264C37.2015 21.35 37.4371 21.9129 37.4895 22.07L37.568 22.371H28.0123C22.7502 22.371 18.4436 22.3449 18.4436 22.3056C18.4436 22.1092 19.0588 20.6563 19.3337 20.2112C20.3155 18.6142 22.2659 17.3183 24.2032 16.9649C24.3864 16.9256 26.2452 16.9125 28.3265 16.9256C32.0571 16.9518 32.1357 16.9518 32.9996 17.2791Z" fill="white"/>
<path d="M2.60475 19.8971C1.34811 20.46 0.562718 21.3632 0.183109 22.6591C-0.00014979 23.3005 -0.0132397 24.243 0.0129401 30.4345L0.05221 37.49L0.405638 38.2492C0.824516 39.1393 0.549628 38.8775 8.16797 45.7628L13.9275 50.9726L13.993 53.1194L14.0584 55.2531L14.425 55.5672C15.1187 56.1694 15.8518 56.1432 16.4932 55.4887L16.8728 55.1222V52.5042C16.8728 50.0171 16.8597 49.8862 16.5848 49.4935C16.4146 49.2579 13.3647 46.4435 9.80422 43.2365C6.24375 40.0164 3.23307 37.2544 3.12835 37.1104C2.95818 36.8748 2.932 35.893 2.89273 30.6178C2.86655 27.2013 2.89273 24.1383 2.932 23.8241C3.11526 22.5937 4.25408 22.1093 5.11802 22.8816L5.54998 23.2612L5.61543 28.0391C5.68088 32.5813 5.69397 32.83 5.94268 33.1049C6.08667 33.262 6.95061 33.9165 7.85381 34.5579C9.29371 35.5789 9.52933 35.7883 9.72568 36.2857C10.0529 37.1497 10.3016 37.4246 13.3778 40.3305C16.2968 43.1056 16.5848 43.3019 17.3833 43.1187C18.1818 42.9485 18.6923 41.7966 18.2996 41.0636C18.1949 40.8803 16.8859 39.5713 15.3674 38.1314C13.8621 36.7046 12.5531 35.448 12.4615 35.3302C12.3698 35.2254 12.2913 34.9113 12.2913 34.6364C12.2913 33.9165 12.8542 33.3667 13.6003 33.3667C14.1239 33.3667 14.2286 33.4452 16.6503 35.749C18.0378 37.0711 19.8704 38.8252 20.7343 39.676L22.3051 41.2075L22.3706 48.2238L22.436 55.2531L22.8025 55.5672C23.4963 56.1694 24.2293 56.1432 24.8838 55.4887L25.2634 55.1091L25.2242 47.8049L25.1849 40.5007L24.8315 39.8462C24.478 39.1786 23.6796 38.367 18.9279 33.8117C15.7601 30.7749 15.1842 30.4214 13.5479 30.4345C12.0557 30.4476 10.8252 31.0498 10.1969 32.0839L9.98748 32.4373L9.24135 31.9137L8.50831 31.3901L8.46904 26.9788L8.42977 22.5675L8.07634 21.8999C7.63129 21.049 6.571 20.0935 5.7856 19.8317C4.90858 19.5306 3.33779 19.5568 2.60475 19.8971Z" fill="white"/>
<path d="M50.1603 19.8448C49.4142 20.1066 48.3539 21.0752 47.922 21.8999L47.5685 22.5675L47.5293 26.9788L47.49 31.4032L46.757 31.9268L46.0239 32.4504L45.8014 32.0839C45.5003 31.5864 44.8066 31.0236 44.0997 30.6963C43.6677 30.5 43.2358 30.4345 42.4504 30.4214C40.8141 30.4214 40.2382 30.7749 37.0704 33.8117C32.3187 38.367 31.5203 39.1786 31.1668 39.8462L30.8134 40.5007L30.7741 47.8049L30.7349 55.1091L31.1145 55.4887C31.769 56.1432 32.502 56.1694 33.1958 55.5672L33.5623 55.2531L33.6277 48.2238L33.6932 41.1945L35.3294 39.6106C39.4789 35.5658 41.8482 33.4059 42.1624 33.3405C42.9609 33.1965 43.707 33.851 43.707 34.6888C43.707 35.2124 43.5761 35.3563 39.4528 39.2571C38.5888 40.0687 37.8034 40.8803 37.6987 41.0636C37.4893 41.4693 37.5809 42.3202 37.882 42.6605C38.2092 43.027 38.8114 43.2234 39.3088 43.1318C39.6622 43.0663 40.3691 42.4773 42.6205 40.3436C45.6836 37.4376 45.9454 37.1497 46.2726 36.2988C46.4559 35.8145 46.7046 35.592 48.1445 34.5709C49.0477 33.9295 49.9116 33.262 50.0556 33.1049C50.3043 32.83 50.3174 32.5813 50.3829 28.0391L50.4483 23.2612L50.8803 22.8816C51.7442 22.1093 52.883 22.5937 53.0663 23.8241C53.1056 24.1383 53.1318 27.2013 53.1056 30.6178C53.0663 35.893 53.0401 36.8748 52.87 37.1104C52.7652 37.2544 49.7545 40.0164 46.1941 43.2234C42.6336 46.4435 39.5837 49.2579 39.4266 49.4935C39.1386 49.8862 39.1255 50.0171 39.1255 52.5042V55.1222L39.5051 55.4887C40.1465 56.1432 40.8796 56.1694 41.5733 55.5672L41.9399 55.2531L42.0053 53.1194L42.0708 50.9857L47.8958 45.7105C55.5534 38.7728 55.1738 39.1393 55.5927 38.2492L55.9461 37.49L55.9854 30.4869C56.0377 22.646 56.0115 22.4758 55.1476 21.2847C54.6502 20.604 53.747 19.9626 53.0009 19.7531C52.3333 19.5699 50.8017 19.6091 50.1603 19.8448Z" fill="white"/>
</svg>
