<svg width="240" height="39" viewBox="0 0 240 39" fill="none" xmlns="http://www.w3.org/2000/svg">
<path fill-rule="evenodd" clip-rule="evenodd" d="M26.524 0.410234C31.0938 0.473307 31.4729 0.494331 33.2629 1.04096C34.2948 1.35632 35.8322 1.92397 36.6324 2.32343C37.4327 2.70187 38.8647 3.58488 39.7913 4.25766C40.7179 4.95145 42.0025 6.12881 42.6553 6.86465C43.3082 7.6005 44.1505 8.69376 44.5296 9.26141C44.9297 9.85009 45.4983 10.9013 45.8353 11.6371C46.3828 12.8355 46.4881 12.9617 47.2041 13.0668C47.6464 13.1509 48.3413 13.3611 48.7415 13.5714C49.1416 13.7816 49.7944 14.2652 50.1945 14.6436C50.5947 15.0431 51.1001 15.7789 51.3317 16.3045C51.5844 16.8932 51.7529 17.7341 51.7529 18.512C51.7529 19.4371 51.6266 20.0889 51.2264 20.9298C50.9316 21.5605 50.3209 22.4015 49.8787 22.7799C49.4154 23.1584 48.573 23.5999 48.0044 23.7681C47.4147 23.9573 46.2775 24.0834 45.4773 24.0834C44.677 24.0834 43.94 24.0414 43.8347 23.9783C43.7504 23.9153 43.8978 23.3686 44.1295 22.7589C44.4033 22.0861 44.6138 20.9719 44.6981 19.8786C44.7613 18.5961 44.6981 17.608 44.4243 16.4096C44.2348 15.4846 43.8347 14.16 43.5398 13.4662C43.2661 12.7724 42.6132 11.5951 42.1078 10.8382C41.6024 10.0814 40.6968 8.96707 40.0651 8.33634C39.4543 7.70562 38.4646 6.84363 37.896 6.40212C37.3063 5.96061 36.0428 5.22477 35.053 4.76224C33.9579 4.23663 32.4837 3.73205 31.2623 3.47976C29.8092 3.18542 28.4193 3.05928 26.1028 3.05928C24.1443 3.05928 22.2279 3.18542 21.0486 3.39567C19.9956 3.56386 18.4373 4.00537 17.5738 4.3838C16.7104 4.74121 15.3205 5.47706 14.5202 6.00266C13.72 6.54929 12.309 7.76869 11.3824 8.75683C10.2242 9.99725 9.48709 11.0064 8.91849 12.2048C8.45519 13.1299 7.90765 14.6436 7.65494 15.5687C7.38117 16.6409 7.2127 17.9234 7.2127 19.1428C7.2127 20.5093 7.31799 21.4134 7.65494 22.4015C7.88659 23.1584 8.09718 23.8312 8.09718 23.9153C8.09718 24.0204 7.17058 24.0624 6.03338 24.0204C4.5803 23.9783 3.78005 23.8522 3.25357 23.5789C2.85344 23.3686 2.20061 22.9061 1.82154 22.5277C1.42142 22.1702 0.915994 21.4975 0.684343 21.0349C0.452692 20.5724 0.199981 19.6684 0.136804 19.0376C0.0736261 18.2387 0.157863 17.5239 0.410573 16.725C0.684343 15.9471 1.10553 15.2533 1.75836 14.6015C2.28484 14.0759 3.06403 13.5503 3.46416 13.4242C3.86428 13.298 4.45394 13.1299 4.79089 13.0668C5.23313 12.9617 5.46478 12.6883 5.90703 11.7212C6.20186 11.0695 6.89681 9.87111 7.42329 9.05117C7.97083 8.25225 9.02379 6.96977 9.78192 6.19188C10.5401 5.43501 11.951 4.27868 12.9408 3.64796C13.9306 2.99621 15.2994 2.23934 15.9944 1.945C16.6893 1.65066 17.8265 1.2512 18.5215 1.06198C19.2164 0.851742 20.2062 0.620476 20.7327 0.515355C21.2592 0.431259 23.8495 0.38921 26.524 0.410234ZM223.47 4.36278C225.007 4.40483 225.491 4.50995 225.786 4.80429C226.123 5.14067 226.165 5.85549 226.376 20.7406L228.798 17.8393C230.124 16.2414 231.599 14.5385 232.904 13.1299L235.263 13.1509C237.495 13.1509 237.664 13.1719 237.958 13.6344C238.127 13.8867 238.274 14.3072 238.274 14.5805C238.274 14.8749 237.053 16.4727 234.905 19.0376C233.052 21.2452 231.577 23.1584 231.62 23.3056C231.662 23.4317 233.368 25.5131 235.41 27.9309C238.674 31.7573 239.117 32.367 239.117 33.0187C239.117 33.5443 238.99 33.8387 238.632 34.0699C238.295 34.3012 237.579 34.3853 233.852 34.3853L232.083 32.3459C231.114 31.2106 229.408 29.2133 226.271 25.5551V29.5497C226.271 33.271 226.25 33.5653 225.849 33.9648C225.491 34.3222 225.133 34.3853 223.364 34.3853C221.701 34.4063 221.237 34.3222 220.374 33.6494L220.479 4.86736L221.006 4.57302C221.364 4.40483 222.164 4.32073 223.47 4.36278ZM25.7869 7.70562C28.8194 7.70562 30.5463 7.78972 31.5782 7.99996C32.3784 8.16815 33.7684 8.67273 34.6318 9.09321C35.4952 9.53472 36.7798 10.3967 37.4537 11.0485C38.1487 11.6792 39.0753 12.7724 39.5175 13.4662C39.9598 14.16 40.5284 15.2323 40.739 15.842C40.9706 16.4306 41.2654 17.6711 41.3918 18.5751C41.5813 19.7525 41.5813 20.6355 41.4128 21.7708C41.2865 22.6328 40.9917 23.9153 40.76 24.609C40.5073 25.3028 39.8966 26.4802 39.4122 27.216C38.9279 27.9519 38.0013 29.0241 37.3695 29.5918C36.7377 30.1594 35.6005 30.9373 34.8424 31.3158C34.0842 31.7152 32.9049 32.1777 32.21 32.367C31.4729 32.5562 30.0619 32.7034 26.7346 32.7034L23.1545 35.6257C21.196 37.2235 19.5113 38.485 19.427 38.4009C19.3428 38.3378 19.1322 36.9082 18.5636 32.1777L16.9631 31.3368C15.9312 30.8112 14.8783 30.0123 13.9938 29.1292C13.1514 28.3093 12.309 27.174 11.8457 26.291C11.4245 25.4921 10.9191 24.2516 10.7085 23.5578C10.4979 22.7799 10.3505 21.5605 10.3295 20.4042C10.3295 19.374 10.4558 17.9864 10.6032 17.3557C10.7506 16.725 11.2139 15.4846 11.6351 14.6226C12.1827 13.4242 12.7723 12.6463 13.9727 11.4479C15.131 10.2916 16.0154 9.63984 17.1526 9.07219C18.0161 8.65171 19.3428 8.16815 20.1009 8.02098C21.0065 7.81074 22.9229 7.70562 25.7869 7.70562ZM24.1232 19.5632C23.9758 19.9207 23.9126 20.4042 23.9758 20.6775C24.039 20.9298 24.2917 21.3293 24.5234 21.5605C24.755 21.7918 25.1973 22.0441 25.5131 22.1072C25.8501 22.1702 26.3766 22.1072 26.7135 21.939C27.0505 21.7918 27.4506 21.4134 27.598 21.098C27.7665 20.7616 27.8507 20.257 27.7875 19.9417C27.7454 19.6053 27.5138 19.1848 27.3242 18.9956C27.1136 18.8064 26.6925 18.5541 26.3766 18.4279C25.9343 18.2808 25.6395 18.3018 25.113 18.5751C24.734 18.7643 24.2917 19.2269 24.1232 19.5632ZM30.7569 19.2689C30.5884 19.5422 30.441 19.9417 30.4199 20.1519C30.4199 20.3411 30.5463 20.7406 30.6727 21.0349C30.8201 21.3293 31.2834 21.7287 31.6835 21.918C32.3574 22.2123 32.4837 22.2123 33.0945 21.8969C33.4946 21.7077 33.9158 21.2662 34.0842 20.8878C34.2317 20.5093 34.2948 19.9627 34.2317 19.6894C34.1685 19.4161 33.8526 18.9535 33.5156 18.6802C33.1998 18.4279 32.7365 18.1967 32.4627 18.1967C32.21 18.2177 31.7888 18.3438 31.5361 18.491C31.3044 18.6382 30.9464 18.9956 30.7569 19.2689ZM17.5528 20.3201C17.5738 20.9088 17.7212 21.2872 18.1003 21.6657C18.4794 22.0441 18.8584 22.1913 19.4692 22.1913C20.1431 22.1913 20.4168 22.0651 20.838 21.5605C21.1328 21.2031 21.3645 20.6565 21.3645 20.2991C21.3645 19.8786 21.1539 19.4581 20.7327 19.0376C20.3115 18.6172 19.8903 18.4069 19.4902 18.4069C19.1322 18.4069 18.5847 18.6382 18.2056 18.9536C17.6581 19.3951 17.5528 19.6473 17.5528 20.3201ZM73.2754 4.19458C75.3392 4.25766 76.3711 4.3838 77.4873 4.74121C78.3086 4.9935 79.5721 5.54013 80.3303 5.96061C81.0884 6.3811 82.2888 7.28514 83.0048 7.97893C83.9103 8.86195 84.3315 9.4296 84.3315 9.78701C84.3315 10.0814 84.2262 10.4808 84.0788 10.67C83.9314 10.8803 83.089 11.553 82.2256 12.2048C81.3622 12.8355 80.4356 13.3611 80.1829 13.3611C79.9091 13.3611 79.2562 12.9827 78.7087 12.4991C78.1401 12.0366 77.2767 11.4269 76.7502 11.1746C76.2237 10.9013 75.2761 10.5649 74.6443 10.4177C73.9704 10.2495 72.8332 10.1865 71.9066 10.2495C70.7273 10.3336 69.9691 10.5229 68.9162 11.0064C68.1159 11.3848 67.0419 12.0997 66.4944 12.6043C65.9258 13.1088 65.2308 13.9918 64.9149 14.5385C64.599 15.1061 64.1989 16.1784 64.0304 16.9352C63.8409 17.6921 63.6935 18.8274 63.6935 19.4581C63.6935 20.0889 63.8409 21.1821 64.0304 21.8759C64.1989 22.5697 64.599 23.5999 64.9149 24.1465C65.2308 24.7142 65.9047 25.5972 66.4312 26.1228C66.9577 26.6274 67.9896 27.3632 68.7477 27.7206C70.0323 28.3514 70.2218 28.3934 72.5384 28.3934C74.7075 28.3934 75.0865 28.3303 76.1184 27.8468C76.7502 27.5524 77.8242 26.8586 78.4981 26.333C79.1509 25.7864 79.9091 25.3449 80.1829 25.3449C80.4356 25.3449 81.3622 25.8705 82.2256 26.5012C83.089 27.153 83.9314 27.8257 84.0788 28.036C84.2262 28.2252 84.3315 28.6247 84.3526 28.919C84.3526 29.2974 83.9314 29.8441 82.8574 30.8742C81.9308 31.7573 80.8146 32.5562 79.867 33.0397C79.0246 33.4602 77.6136 33.9858 76.7502 34.2171C75.5919 34.5114 74.4758 34.6376 72.6437 34.6376C70.8326 34.6166 69.6743 34.5114 68.5371 34.2171C67.6737 33.9858 66.347 33.5023 65.5888 33.1238C64.8307 32.7454 63.7145 32.0516 63.0828 31.568C62.451 31.0845 61.5244 30.1805 60.9979 29.5497C60.4714 28.919 59.6922 27.6365 59.25 26.7115C58.8078 25.7864 58.2813 24.4198 58.0707 23.663C57.7969 22.6748 57.6916 21.5185 57.6916 19.4581C57.7127 17.3978 57.7969 16.2414 58.0707 15.2533C58.2813 14.4964 58.7867 13.235 59.1658 12.415C59.5659 11.6161 60.3451 10.3757 60.8926 9.68189C61.4612 9.00912 62.4721 7.97893 63.167 7.41128C63.862 6.86465 65.1887 6.02369 66.1153 5.56116C67.0419 5.11965 68.4108 4.59404 69.1689 4.42585C70.1376 4.21561 71.359 4.13151 73.2754 4.19458ZM90.5019 4.34175C91.3863 4.32073 92.3761 4.42585 92.7131 4.55199C93.029 4.67814 93.3449 4.88838 93.4291 5.01453C93.5133 5.1617 93.5976 11.6371 93.5976 19.4161C93.5976 33.271 93.5976 33.5443 93.1764 33.9648C92.8184 34.3222 92.4814 34.3853 90.7125 34.3853C89.2173 34.3853 88.5223 34.3012 87.701 33.7546V19.5212C87.701 8.33635 87.7431 5.18272 87.9537 4.93043C88.1011 4.74121 88.3749 4.53097 88.5434 4.4679C88.7118 4.40483 89.5963 4.34175 90.5019 4.34175ZM183.984 4.42585L184.384 4.95145C184.721 5.37194 184.805 5.81345 184.805 7.26411C184.784 8.50454 184.679 9.19834 184.468 9.53472C184.152 9.99725 184.068 9.99725 175.939 9.99725V33.3341L175.413 33.8597C174.949 34.3432 174.76 34.3853 172.78 34.3853C170.822 34.3853 170.632 34.3432 169.621 33.3341V9.99725H165.578C162.019 9.99725 161.471 9.93418 161.134 9.61882C160.84 9.32448 160.755 8.904 160.755 7.26411C160.755 5.62423 160.819 5.20374 161.134 4.93043C161.345 4.74121 161.661 4.53097 161.829 4.4679C161.998 4.40483 167.052 4.36278 183.984 4.42585ZM213.277 4.32073C214.162 4.32073 215.151 4.42585 215.488 4.55199C215.804 4.67814 216.12 4.88838 216.204 5.01453C216.289 5.1617 216.373 11.6371 216.373 19.4161C216.373 33.271 216.373 33.5443 215.952 33.9648C215.594 34.3222 215.236 34.3853 213.488 34.3853C211.803 34.4063 211.34 34.3222 210.476 33.6494L210.581 4.86736L211.108 4.59404C211.403 4.44687 212.372 4.32073 213.277 4.32073ZM107.181 12.7514C108.107 12.7304 109.35 12.8565 109.918 13.0247C110.508 13.1719 111.456 13.5293 112.024 13.8237C112.614 14.118 113.562 14.7908 114.13 15.2953C114.72 15.8209 115.478 16.704 115.857 17.2716C116.236 17.8393 116.721 18.8695 116.973 19.5632C117.205 20.257 117.479 21.4975 117.71 23.8101L116.173 25.3449H102.442L102.695 26.0387C102.822 26.3961 103.18 27.0899 103.495 27.5524C103.811 28.015 104.38 28.6036 104.78 28.8559C105.18 29.1082 106.023 29.4236 106.654 29.5708C107.623 29.76 108.044 29.7389 109.181 29.4446C109.94 29.2554 110.929 28.8139 111.393 28.4775C111.856 28.1411 112.446 27.8678 112.719 27.8678C112.972 27.8678 113.793 28.2883 114.551 28.8139C115.857 29.7179 115.92 29.802 115.92 30.6009C115.92 31.3368 115.794 31.547 115.015 32.2408C114.509 32.6613 113.583 33.271 112.951 33.5864C112.319 33.9017 111.203 34.3012 110.445 34.4694C109.687 34.6586 108.423 34.8058 107.602 34.8058C106.802 34.8058 105.517 34.6586 104.759 34.4694C104.001 34.3012 102.822 33.8387 102.148 33.4812C101.453 33.1028 100.421 32.3249 99.8311 31.7362C99.2414 31.1476 98.4412 30.0543 98.0621 29.3185C97.6831 28.5826 97.2408 27.3212 97.0723 26.5012C96.9039 25.7023 96.7564 24.4198 96.7564 23.663C96.7564 22.9061 96.8828 21.6867 97.0513 20.9298C97.1987 20.1729 97.6409 18.9535 98.02 18.1967C98.3991 17.4398 99.1572 16.3676 99.7047 15.7789C100.252 15.2112 101.263 14.4334 101.937 14.0549C102.632 13.6975 103.706 13.235 104.338 13.0668C104.97 12.8986 106.254 12.7514 107.181 12.7514ZM105.075 18.0285C104.738 18.2177 104.232 18.5961 104.001 18.8695C103.748 19.1217 103.348 19.7525 103.095 20.257C102.864 20.7406 102.653 21.2452 102.653 21.3503C102.653 21.4764 104.338 21.5605 107.286 21.5605C109.834 21.5605 111.919 21.4975 111.919 21.4134C111.919 21.3083 111.793 20.8878 111.603 20.4673C111.435 20.0258 110.929 19.2899 110.508 18.8064C109.94 18.2177 109.392 17.8603 108.655 17.6501C108.086 17.4819 107.455 17.3557 107.286 17.3767C107.118 17.3978 106.696 17.4608 106.338 17.5449C106.001 17.629 105.433 17.8603 105.075 18.0285ZM130.62 12.8565C131.441 12.8986 132.641 13.1299 133.252 13.3611C133.842 13.5924 134.705 14.0759 135.147 14.4123C135.906 15.022 135.927 15.0431 135.927 14.5805C135.927 14.3072 136.074 13.8867 136.242 13.6344C136.537 13.1719 136.706 13.1509 138.875 13.1509C140.644 13.1509 141.255 13.214 141.507 13.4662C141.781 13.7396 141.823 15.1692 141.823 33.7546L141.36 34.0699C141.002 34.3012 140.307 34.3853 138.833 34.3853C137.043 34.3853 136.706 34.3222 136.348 33.9648C136.116 33.7335 135.927 33.3131 135.927 32.4931L134.937 33.25C134.368 33.6494 133.399 34.154 132.768 34.3222C132.094 34.5114 130.872 34.6586 129.819 34.6376C128.577 34.6166 127.65 34.4904 126.766 34.175C126.071 33.9438 125.039 33.4392 124.47 33.0608C123.902 32.6823 123.059 31.9675 122.617 31.4419C122.154 30.9163 121.501 29.9282 121.164 29.2344C120.827 28.5406 120.406 27.3212 120.237 26.5012C120.069 25.7023 119.922 24.4198 119.922 23.663C119.922 22.9061 120.048 21.6867 120.216 20.9298C120.364 20.1729 120.806 18.9746 121.164 18.2598C121.522 17.5239 122.217 16.4937 122.722 15.9681C123.207 15.4215 123.986 14.7277 124.449 14.4123C124.913 14.118 125.713 13.6765 126.239 13.4873C126.766 13.277 127.608 13.0247 128.135 12.9196C128.661 12.8355 129.777 12.7935 130.62 12.8565ZM127.545 19.5843C127.124 19.9207 126.534 20.6775 126.26 21.2662C125.902 22.0021 125.755 22.6748 125.734 23.663C125.734 24.7352 125.839 25.2818 126.303 26.2489C126.703 27.0689 127.145 27.6365 127.777 28.078C128.261 28.4354 129.146 28.8139 129.714 28.94C130.304 29.0662 131.125 29.1292 131.567 29.0451C131.989 28.9821 132.705 28.7298 133.147 28.5195C133.568 28.2883 134.179 27.8468 134.473 27.5104C134.789 27.195 135.211 26.5853 135.4 26.1859C135.611 25.7864 135.821 24.9244 135.884 24.2937C135.948 23.5999 135.884 22.7169 135.695 22.0861C135.548 21.5185 135.168 20.6986 134.874 20.2991C134.579 19.8996 133.821 19.311 133.189 18.9746C132.304 18.5541 131.736 18.4069 130.872 18.4279C130.241 18.4279 129.398 18.5541 129.019 18.6802C128.64 18.8274 127.966 19.2269 127.545 19.5843ZM195.103 12.8355C196.008 12.8776 197.188 13.1088 197.841 13.3401C198.472 13.5924 199.357 14.0759 200.578 15.0431V14.4754C200.578 14.139 200.747 13.7185 200.957 13.5083C201.252 13.1929 201.673 13.1299 203.527 13.1509C205.317 13.1509 205.801 13.235 206.117 13.5293C206.454 13.8657 206.496 14.5595 206.475 23.726C206.475 33.25 206.454 33.5653 206.054 33.9648C205.696 34.3222 205.359 34.3853 203.527 34.3853C201.694 34.3853 201.358 34.3222 201 33.9648C200.768 33.7335 200.578 33.3131 200.578 32.4931L199.904 32.9977C199.525 33.271 198.809 33.6915 198.325 33.9438C197.82 34.175 196.788 34.4694 196.008 34.5955C195.082 34.7217 194.05 34.7217 193.102 34.5745C192.302 34.4694 191.039 34.091 190.323 33.7546C189.585 33.3972 188.469 32.6193 187.838 32.0306C187.164 31.3788 186.363 30.3486 185.942 29.5497C185.542 28.7929 185.079 27.5735 184.91 26.8166C184.721 26.0597 184.573 24.6511 184.573 23.663C184.573 22.6748 184.721 21.3083 184.889 20.6145C185.079 19.9207 185.479 18.7854 185.816 18.0916C186.174 17.3557 186.953 16.3045 187.669 15.6107C188.385 14.8749 189.396 14.139 190.154 13.7816C190.849 13.4452 191.902 13.0878 192.471 12.9617C193.06 12.8565 194.24 12.7935 195.103 12.8355ZM191.691 20.0468C191.165 20.6145 190.765 21.3503 190.554 22.1492C190.323 22.9271 190.259 23.705 190.344 24.3988C190.407 24.9875 190.681 25.8705 190.954 26.3961C191.228 26.9217 191.839 27.6576 192.323 28.036C192.807 28.3934 193.608 28.8139 194.113 28.94C194.598 29.0662 195.419 29.1292 195.945 29.0662C196.472 29.0031 197.272 28.7718 197.735 28.5616C198.199 28.3303 198.894 27.7627 199.273 27.3212C199.652 26.8797 200.115 25.9756 200.305 25.3449C200.515 24.567 200.578 23.8312 200.494 23.0953C200.431 22.4856 200.178 21.6236 199.968 21.2031C199.757 20.7616 199.294 20.1309 198.978 19.7945C198.641 19.4581 197.988 19.0166 197.525 18.8064C196.998 18.5541 196.198 18.4069 195.419 18.4069C194.64 18.4069 193.818 18.5751 193.313 18.8064C192.85 19.0166 192.113 19.5843 191.691 20.0468ZM157.618 12.9406C158.039 12.9406 158.523 13.1088 158.734 13.3191C159.029 13.6134 159.113 14.0339 159.113 15.6738C159.113 17.3137 159.05 17.7341 158.734 18.0075C158.523 18.1967 157.933 18.4069 157.407 18.491C156.88 18.5751 156.038 18.7643 155.512 18.9325C154.985 19.1007 154.185 19.5632 153.722 19.9417C153.258 20.3201 152.648 21.119 152.353 21.6867C151.847 22.6748 151.826 22.8851 151.721 28.2462C151.616 33.4812 151.595 33.7966 151.194 34.0909C150.9 34.3012 150.163 34.3853 148.731 34.3853C146.941 34.3853 146.604 34.3222 146.246 33.9648C145.845 33.5653 145.824 33.271 145.824 23.726C145.824 14.7067 145.867 13.8657 146.203 13.5083C146.498 13.1929 146.919 13.1299 148.773 13.1509C150.563 13.1509 151.047 13.235 151.363 13.5293C151.637 13.8026 151.742 14.2021 151.721 16.5147L152.521 15.6528C152.942 15.1692 153.595 14.5805 153.932 14.3282C154.29 14.097 155.09 13.6765 155.722 13.4242C156.354 13.1719 157.217 12.9406 157.618 12.9406Z" fill="white"/>
</svg>
