<svg width="208" height="153" viewBox="0 0 208 153" fill="none" xmlns="http://www.w3.org/2000/svg">
<path fill-rule="evenodd" clip-rule="evenodd" d="M102.941 0.0126081C113.385 -0.0877868 121.822 0.414187 127.044 1.41814C131.463 2.22129 138.493 4.32959 142.611 6.0363C146.728 7.74301 153.457 11.558 157.575 14.3691C161.692 17.1801 167.417 22.1999 170.329 25.5129C173.342 28.8259 176.958 33.3437 178.464 35.5524C179.971 37.7611 182.381 42.078 183.887 45.0899C186.197 50.0092 186.9 50.712 190.415 51.3144C192.524 51.716 196.341 53.5231 198.851 55.4306C201.362 57.2377 204.375 60.7515 205.681 63.2614C206.986 65.972 207.991 69.6866 207.991 72.6985C208.091 75.7103 207.388 79.5253 206.082 82.236C205.078 84.7459 202.567 88.1593 200.76 89.866C198.851 91.5727 195.437 93.681 193.026 94.6849C190.717 95.5885 186.398 96.2913 183.586 96.2913C180.674 96.2913 177.661 95.8897 176.958 95.4881C175.953 94.8857 176.054 93.4802 177.259 88.2597C178.062 84.6455 178.765 79.1237 178.765 75.9111C178.765 72.7989 178.163 67.1768 177.359 63.4622C176.556 59.6471 174.849 54.4266 173.543 51.6156C172.237 48.9049 170.028 44.9895 168.722 42.9816C167.316 40.9737 164.303 37.1587 162.094 34.448C159.784 31.7374 154.562 27.2196 150.545 24.3082C146.427 21.4971 139.296 17.6821 126.04 12.562H80.8461L72.8117 15.875C68.3928 17.6821 61.8649 21.0955 58.2494 23.505C54.6339 25.8141 49.8133 29.7295 47.5034 32.139C45.1935 34.5484 42.4819 37.6607 41.3772 39.0662C40.2724 40.4717 38.063 43.8852 36.4561 46.5958C34.7488 49.4069 32.4389 55.4306 31.1333 60.1491C29.8277 65.3697 28.9238 71.5941 28.9238 76.2123C28.9238 80.4289 29.6268 85.8502 30.5307 88.5609C31.8363 92.3759 31.9367 93.5806 30.832 94.7853C30.0286 95.8562 27.953 96.3917 24.6053 96.3917C21.7933 96.2913 17.5752 95.6889 15.0645 94.7853C12.5537 93.9822 8.73741 91.6731 6.62838 89.5648C4.41892 87.4565 2.10903 84.2439 1.30559 82.5372C0.60258 80.7301 0 76.4131 0 72.9997C0 68.1807 0.60258 65.6708 2.41032 62.659C3.71591 60.4503 6.72881 57.1373 9.13913 55.3302C11.5495 53.5231 15.1649 51.8163 17.0731 51.5152C20.086 51.1136 20.8894 50.3104 22.7976 46.2946C24.1032 43.6844 26.1118 39.769 27.317 37.6607C28.6226 35.452 32.8406 30.2315 36.7574 26.1153C40.6741 21.8987 47.0012 16.377 50.8176 13.7667C54.6339 11.1564 61.1619 7.64262 65.2795 5.83551C69.3971 4.1288 76.0255 2.1209 79.8418 1.41814C83.6582 0.715372 94.1029 0.113003 102.941 0.0126081ZM102.439 29.1271C109.87 29.1271 118.909 29.5287 122.525 30.0307C126.14 30.5326 131.764 32.0386 135.078 33.4441C138.393 34.7492 143.816 37.9619 147.13 40.5721C150.444 43.1824 154.562 47.1982 156.269 49.5073C157.976 51.716 160.286 55.4306 161.391 57.6393C162.596 59.8479 164.203 64.1649 165.107 67.1768C166.011 70.289 166.714 76.2123 166.714 80.7301C166.714 85.1474 166.111 90.7695 165.308 93.2794C164.504 95.7893 163.098 99.6043 162.094 101.813C161.09 104.022 158.579 108.138 156.57 110.849C154.662 113.66 151.047 117.475 148.536 119.482C146.126 121.49 141.707 124.301 138.794 125.807C135.982 127.213 130.961 129.12 127.747 129.924C124.634 130.727 118.507 131.429 106.456 131.429L100.129 136.55C96.7141 139.361 92.3956 142.874 90.5879 144.28C88.7801 145.786 86.0685 147.995 84.5621 149.3C83.0556 150.605 81.047 152.01 80.0427 152.613C78.938 153.215 78.0341 153.115 77.3311 152.312C76.7285 151.609 75.8246 146.489 75.3225 140.967C74.8203 135.445 74.4186 130.325 74.3182 129.723C74.3182 129.02 71.9079 127.313 68.9954 126.008C66.1834 124.703 60.8606 120.988 57.3455 117.776C53.8305 114.563 49.512 109.343 47.7042 106.331C45.8965 103.319 43.5866 97.8976 42.5823 94.2834C41.6785 90.6692 40.875 84.3443 40.875 80.2281C40.9754 76.1119 41.578 70.1886 42.3815 67.1768C43.2853 64.1649 45.0931 59.4464 46.4991 56.6353C47.8047 53.9246 51.0184 49.4069 53.4288 46.5958C55.9395 43.8852 60.1576 40.1705 62.8692 38.3634C65.5808 36.6567 70.301 34.2473 73.3139 33.0425C76.3268 31.8378 81.047 30.4322 83.859 30.0307C86.5707 29.6291 95.0068 29.2275 102.439 29.1271V29.1271ZM122.525 79.7261C122.525 81.1316 122.826 82.9387 123.228 83.8423C123.73 84.7459 125.236 86.1514 126.743 86.8541C128.751 87.8581 130.258 87.9585 132.065 87.2557C133.471 86.7538 135.179 84.7459 135.982 83.0391C136.685 81.232 137.087 78.8226 136.685 77.8186C136.384 76.7143 134.978 75.0076 133.572 74.0036C132.166 72.9997 130.258 72.0961 129.253 72.1965C128.249 72.1965 126.341 73.3008 125.035 74.7064C123.73 76.0115 122.625 78.3206 122.525 79.7261V79.7261ZM70.2006 80.0273C70.2006 81.5332 71.1044 83.9427 72.3096 85.549C73.7156 87.4565 75.2221 88.2597 77.3311 88.2597C79.3397 88.2597 81.3483 87.3561 82.8547 85.7498C84.2608 84.3443 85.3655 82.1356 85.3655 80.7301C85.3655 79.3245 84.1603 77.1159 82.5535 75.7103C81.047 74.3048 78.938 73.1001 77.7328 73.2005C76.5277 73.2005 74.4186 74.104 72.9122 75.3087C71.004 76.7143 70.1001 78.2202 70.2006 80.0273ZM96.2119 81.0312C96.3124 83.2399 97.3167 84.8463 99.1244 86.2518C100.731 87.4565 102.74 88.3601 103.744 88.2597C104.748 88.2597 106.958 86.9545 108.565 85.2478C110.172 83.6415 111.477 81.4328 111.477 80.5293C111.578 79.5253 110.674 77.5174 109.469 76.0115C107.962 73.9032 106.556 73.2005 104.146 73.2005C101.936 73.2005 99.9278 74.0036 98.4214 75.5095C96.7141 77.1158 96.1115 78.8226 96.2119 81.0312Z" fill="white"/>
</svg>
