<svg width="28" height="27" viewBox="0 0 28 27" fill="none" xmlns="http://www.w3.org/2000/svg">
<path d="M7.52548 11.234C7.27636 11.234 7.0373 11.272 6.79936 11.3066C6.87644 11.0475 6.95576 10.7838 7.08311 10.547C7.21045 10.2029 7.4093 9.90467 7.60702 9.60417C7.77235 9.27909 8.06392 9.05903 8.2784 8.78087C8.50294 8.51053 8.80902 8.33068 9.05143 8.10614C9.28937 7.87155 9.60104 7.75426 9.84904 7.58892C10.1082 7.44035 10.3339 7.27614 10.5752 7.19794L11.1773 6.94994L11.7068 6.72988L11.165 4.56494L10.4981 4.7258C10.2847 4.77942 10.0244 4.84198 9.72839 4.91683C9.42566 4.97268 9.10282 5.12572 8.74311 5.26536C8.38788 5.42399 7.97678 5.53123 7.59474 5.78593C7.21045 6.02946 6.76697 6.23277 6.37598 6.55896C5.99729 6.89521 5.54039 7.18677 5.20303 7.61462C4.83439 8.01454 4.47021 8.43457 4.18759 8.91269C3.86028 9.36846 3.63798 9.86892 3.40338 10.3638C3.19114 10.8587 3.02022 11.3647 2.88058 11.8562C2.61583 12.8415 2.49742 13.7776 2.45162 14.5786C2.41364 15.3807 2.43598 16.0476 2.4829 16.5302C2.49965 16.7581 2.53093 16.9792 2.55327 17.1323L2.5812 17.32L2.61025 17.3133C2.80893 18.2414 3.26632 19.0943 3.9295 19.7733C4.59267 20.4523 5.43454 20.9297 6.35771 21.1503C7.28087 21.3708 8.24762 21.3255 9.14611 21.0196C10.0446 20.7137 10.8381 20.1596 11.4349 19.4215C12.0316 18.6835 12.4072 17.7915 12.5183 16.8489C12.6293 15.9062 12.4711 14.9514 12.0622 14.0949C11.6532 13.2384 11.0101 12.5152 10.2072 12.0089C9.4044 11.5026 8.47462 11.234 7.52548 11.234ZM19.8136 11.234C19.5644 11.234 19.3254 11.272 19.0874 11.3066C19.1645 11.0475 19.2438 10.7838 19.3712 10.547C19.4985 10.2029 19.6974 9.90467 19.8951 9.60417C20.0604 9.27909 20.352 9.05903 20.5665 8.78087C20.791 8.51053 21.0971 8.33068 21.3395 8.10614C21.5774 7.87155 21.8891 7.75426 22.1371 7.58892C22.3963 7.44035 22.6219 7.27614 22.8632 7.19794L23.4653 6.94994L23.9948 6.72988L23.4531 4.56494L22.7861 4.7258C22.5728 4.77942 22.3125 4.84198 22.0165 4.91683C21.7137 4.97268 21.3909 5.12572 21.0312 5.26536C20.6771 5.42511 20.2649 5.53123 19.8828 5.78705C19.4985 6.03057 19.055 6.23389 18.6641 6.56008C18.2854 6.89632 17.8285 7.18789 17.4911 7.61462C17.1225 8.01454 16.7583 8.43457 16.4757 8.91269C16.1484 9.36846 15.9261 9.86892 15.6915 10.3638C15.4792 10.8587 15.3083 11.3647 15.1687 11.8562C14.9039 12.8415 14.7855 13.7776 14.7397 14.5786C14.7017 15.3807 14.7241 16.0476 14.771 16.5302C14.7877 16.7581 14.819 16.9792 14.8413 17.1323L14.8693 17.32L14.8983 17.3133C15.097 18.2414 15.5544 19.0943 16.2176 19.7733C16.8807 20.4523 17.7226 20.9297 18.6458 21.1503C19.5689 21.3708 20.5357 21.3255 21.4342 21.0196C22.3327 20.7137 23.1262 20.1596 23.723 19.4215C24.3197 18.6835 24.6953 17.7915 24.8063 16.8489C24.9173 15.9062 24.7592 14.9514 24.3502 14.0949C23.9413 13.2384 23.2982 12.5152 22.4953 12.0089C21.6925 11.5026 20.7627 11.234 19.8136 11.234Z" fill="white"/>
</svg>
