<svg width="35" height="35" viewBox="0 0 35 35" fill="none" xmlns="http://www.w3.org/2000/svg">
<path d="M34.5822 28.8885L33.8814 28.3729C33.7044 28.2427 33.6029 28.042 33.6029 27.8223C33.6029 27.6025 33.7044 27.4019 33.8814 27.2716L34.5822 26.7561C35.0031 26.4465 35.1238 25.8699 34.8626 25.4174L33.4954 23.0493C33.2341 22.5969 32.6745 22.4132 32.1959 22.6229L31.399 22.972C31.1979 23.0601 30.9733 23.0477 30.7828 22.9378C30.5926 22.828 30.4695 22.6397 30.4453 22.4213L30.3492 21.5567C30.2939 21.0589 29.8884 20.6773 29.3946 20.6465V3.07617C29.3946 2.50988 28.9355 2.05078 28.3692 2.05078H25.293V1.02539C25.293 0.459102 24.8339 0 24.2676 0C23.7014 0 23.2423 0.459102 23.2423 1.02539V2.05078H21.1915V1.02539C21.1915 0.459102 20.7324 0 20.1661 0C19.5998 0 19.1407 0.459102 19.1407 1.02539V2.05078H10.2539V1.02539C10.2539 0.459102 9.7948 0 9.22852 0C8.66223 0 8.20312 0.459102 8.20312 1.02539V2.05078H6.15234V1.02539C6.15234 0.459102 5.69324 0 5.12695 0C4.56066 0 4.10156 0.459102 4.10156 1.02539V2.05078H1.02539C0.459102 2.05078 0 2.50988 0 3.07617V29.7363C0 30.3026 0.459102 30.7617 1.02539 30.7617H21.3718L22.4304 32.5951C22.6916 33.0476 23.2513 33.2313 23.7299 33.0216L24.5267 32.6725C24.7278 32.5843 24.9524 32.5968 25.1429 32.7066C25.3332 32.8165 25.4562 33.0047 25.4805 33.2231L25.5765 34.0878C25.6342 34.6071 26.0732 35 26.5956 35H29.33C29.8525 35 30.2914 34.6071 30.3491 34.0878L30.4451 33.2231C30.4693 33.0048 30.5925 32.8165 30.7827 32.7067C30.9732 32.5968 31.1977 32.5844 31.3989 32.6725L32.1958 33.0216C32.6743 33.2313 33.234 33.0477 33.4953 32.5951L34.8625 30.2271C35.1238 29.7747 35.0031 29.1981 34.5822 28.8885ZM2.05078 4.10156H4.10156V5.12695C4.10156 5.69324 4.56066 6.15234 5.12695 6.15234C5.69324 6.15234 6.15234 5.69324 6.15234 5.12695V4.10156H8.20312V5.12695C8.20312 5.69324 8.66223 6.15234 9.22852 6.15234C9.7948 6.15234 10.2539 5.69324 10.2539 5.12695V4.10156H19.1406V5.12695C19.1406 5.69324 19.5997 6.15234 20.166 6.15234C20.7323 6.15234 21.1914 5.69324 21.1914 5.12695V4.10156H23.2422V5.12695C23.2422 5.69324 23.7013 6.15234 24.2676 6.15234C24.8339 6.15234 25.293 5.69324 25.293 5.12695V4.10156H27.3438V8.20312H2.05078V4.10156ZM22.4304 23.0494L21.0632 25.4175C20.802 25.8699 20.9226 26.4465 21.3435 26.7561L22.0443 27.2717C22.2214 27.4019 22.3228 27.6026 22.3228 27.8223C22.3228 28.042 22.2214 28.2427 22.0443 28.373L21.5849 28.711H2.05078V10.2539H27.3438V20.6445H26.5957C26.0732 20.6445 25.6343 21.0374 25.5766 21.5567L25.4805 22.4213C25.4563 22.6397 25.3332 22.828 25.1429 22.9379C24.9526 23.0477 24.728 23.0602 24.5268 22.972L23.7299 22.6229C23.2514 22.4133 22.6916 22.5969 22.4304 23.0494ZM32.6279 29.9962L32.1781 30.7753C31.3844 30.4433 30.5048 30.4989 29.7575 30.9306C29.0101 31.3621 28.5221 32.096 28.4127 32.9492H27.5131C27.4037 32.0958 26.9156 31.362 26.1682 30.9306C25.4209 30.499 24.5414 30.4432 23.7477 30.7753L23.2979 29.9962C23.9822 29.4748 24.3736 28.6852 24.3736 27.8223C24.3736 26.9592 23.9822 26.1697 23.2979 25.6484L23.7477 24.8693C24.5414 25.2013 25.4209 25.1454 26.1682 24.714C26.9156 24.2825 27.4037 23.5488 27.5131 22.6954H28.4127C28.5221 23.5486 29.0101 24.2825 29.7575 24.7139C30.5049 25.1454 31.3843 25.2014 32.1781 24.8693L32.6279 25.6483C31.9435 26.1697 31.5521 26.9592 31.5521 27.8223C31.5521 28.6853 31.9435 29.4749 32.6279 29.9962Z" fill="#0075D6"/>
<path d="M27.9629 28.8477C28.5292 28.8477 28.9883 28.3886 28.9883 27.8223C28.9883 27.256 28.5292 26.7969 27.9629 26.7969C27.3966 26.7969 26.9375 27.256 26.9375 27.8223C26.9375 28.3886 27.3966 28.8477 27.9629 28.8477Z" fill="#0075D6"/>
<path d="M6.49414 16.4062H5.12695C4.56066 16.4062 4.10156 16.8654 4.10156 17.4316C4.10156 17.9979 4.56066 18.457 5.12695 18.457H6.49414C7.06043 18.457 7.51953 17.9979 7.51953 17.4316C7.51953 16.8654 7.06043 16.4062 6.49414 16.4062Z" fill="#0075D6"/>
<path d="M12.4187 16.4062H11.0515C10.4852 16.4062 10.0261 16.8654 10.0261 17.4316C10.0261 17.9979 10.4852 18.457 11.0515 18.457H12.4187C12.985 18.457 13.4441 17.9979 13.4441 17.4316C13.4441 16.8654 12.985 16.4062 12.4187 16.4062Z" fill="#0075D6"/>
<path d="M18.343 16.4062H16.9758C16.4095 16.4062 15.9504 16.8654 15.9504 17.4316C15.9504 17.9979 16.4095 18.457 16.9758 18.457H18.343C18.9093 18.457 19.3684 17.9979 19.3684 17.4316C19.3684 16.8654 18.9093 16.4062 18.343 16.4062Z" fill="#0075D6"/>
<path d="M25.293 17.4316C25.293 16.8654 24.8339 16.4062 24.2676 16.4062H22.9004C22.3341 16.4062 21.875 16.8654 21.875 17.4316C21.875 17.9979 22.3341 18.457 22.9004 18.457H24.2676C24.8339 18.457 25.293 17.9979 25.293 17.4316Z" fill="#0075D6"/>
<path d="M6.49414 20.5078H5.12695C4.56066 20.5078 4.10156 20.9669 4.10156 21.5332C4.10156 22.0995 4.56066 22.5586 5.12695 22.5586H6.49414C7.06043 22.5586 7.51953 22.0995 7.51953 21.5332C7.51953 20.9669 7.06043 20.5078 6.49414 20.5078Z" fill="#0075D6"/>
<path d="M12.4187 20.5078H11.0515C10.4852 20.5078 10.0261 20.9669 10.0261 21.5332C10.0261 22.0995 10.4852 22.5586 11.0515 22.5586H12.4187C12.985 22.5586 13.4441 22.0995 13.4441 21.5332C13.4441 20.9669 12.985 20.5078 12.4187 20.5078Z" fill="#0075D6"/>
<path d="M18.343 20.5078H16.9758C16.4095 20.5078 15.9504 20.9669 15.9504 21.5332C15.9504 22.0995 16.4095 22.5586 16.9758 22.5586H18.343C18.9093 22.5586 19.3684 22.0995 19.3684 21.5332C19.3684 20.9669 18.9093 20.5078 18.343 20.5078Z" fill="#0075D6"/>
<path d="M6.49414 24.6094H5.12695C4.56066 24.6094 4.10156 25.0685 4.10156 25.6348C4.10156 26.2011 4.56066 26.6602 5.12695 26.6602H6.49414C7.06043 26.6602 7.51953 26.2011 7.51953 25.6348C7.51953 25.0685 7.06043 24.6094 6.49414 24.6094Z" fill="#0075D6"/>
<path d="M12.4187 24.6094H11.0515C10.4852 24.6094 10.0261 25.0685 10.0261 25.6348C10.0261 26.2011 10.4852 26.6602 11.0515 26.6602H12.4187C12.985 26.6602 13.4441 26.2011 13.4441 25.6348C13.4441 25.0685 12.985 24.6094 12.4187 24.6094Z" fill="#0075D6"/>
<path d="M18.343 24.6094H16.9758C16.4095 24.6094 15.9504 25.0685 15.9504 25.6348C15.9504 26.2011 16.4095 26.6602 16.9758 26.6602H18.343C18.9093 26.6602 19.3684 26.2011 19.3684 25.6348C19.3684 25.0685 18.9093 24.6094 18.343 24.6094Z" fill="#0075D6"/>
<path d="M12.4187 12.3047H11.0515C10.4852 12.3047 10.0261 12.7638 10.0261 13.3301C10.0261 13.8964 10.4852 14.3555 11.0515 14.3555H12.4187C12.985 14.3555 13.4441 13.8964 13.4441 13.3301C13.4441 12.7638 12.985 12.3047 12.4187 12.3047Z" fill="#0075D6"/>
<path d="M18.343 12.3047H16.9758C16.4095 12.3047 15.9504 12.7638 15.9504 13.3301C15.9504 13.8964 16.4095 14.3555 16.9758 14.3555H18.343C18.9093 14.3555 19.3684 13.8964 19.3684 13.3301C19.3684 12.7638 18.9093 12.3047 18.343 12.3047Z" fill="#0075D6"/>
<path d="M22.9004 14.3555H24.2676C24.8339 14.3555 25.293 13.8964 25.293 13.3301C25.293 12.7638 24.8339 12.3047 24.2676 12.3047H22.9004C22.3341 12.3047 21.875 12.7638 21.875 13.3301C21.875 13.8964 22.3341 14.3555 22.9004 14.3555Z" fill="#0075D6"/>
</svg>
