<svg width="50" height="50" viewBox="0 0 50 50" fill="none" xmlns="http://www.w3.org/2000/svg">
<g clip-path="url(#clip0_243_5219)">
<path d="M25 19.4336C21.9307 19.4336 19.4336 21.9307 19.4336 25C19.4336 28.0693 21.9307 30.5664 25 30.5664C28.0693 30.5664 30.5664 28.0693 30.5664 25C30.5664 21.9307 28.0693 19.4336 25 19.4336ZM25 27.6367C23.5461 27.6367 22.3633 26.4539 22.3633 25C22.3633 23.5461 23.5461 22.3633 25 22.3633C26.4539 22.3633 27.6367 23.5461 27.6367 25C27.6367 26.4539 26.4539 27.6367 25 27.6367Z" fill="white"/>
<path d="M2.92969 25C2.92969 12.8304 12.8304 2.92969 25 2.92969C29.8745 2.92969 34.507 4.50068 38.3219 7.40088L35.6836 7.81865C34.8846 7.94522 34.3394 8.69551 34.4659 9.49463C34.5802 10.2161 35.2029 10.7306 35.9109 10.7306C35.9871 10.7306 36.0643 10.7246 36.1419 10.7123L41.871 9.80488C42.67 9.67832 43.2152 8.92803 43.0887 8.12891L42.1813 2.3998C42.0547 1.60068 41.3045 1.05605 40.5053 1.18213C39.7062 1.30869 39.161 2.05898 39.2876 2.85811L39.5769 4.68447C35.3563 1.64268 30.3048 0 25 0C18.3223 0 12.0442 2.60039 7.32227 7.32227C2.60049 12.0442 0 18.3223 0 25C0 29.2393 1.08076 33.4279 3.12559 37.1132C3.39316 37.5954 3.89268 37.8676 4.40781 37.8676C4.64824 37.8676 4.89199 37.8083 5.11719 37.6833C5.82461 37.2907 6.07988 36.3991 5.6873 35.6917C3.8833 32.4402 2.92969 28.7432 2.92969 25Z" fill="white"/>
<path d="M46.818 12.7858C46.4222 12.0803 45.5292 11.829 44.8238 12.225C44.1182 12.6208 43.8671 13.5136 44.2629 14.2191C46.0995 17.4933 47.0703 21.2213 47.0703 25C47.0703 37.1696 37.1696 47.0703 25 47.0703C20.1254 47.0703 15.493 45.4993 11.6781 42.5991L14.3164 42.1812C15.1154 42.0547 15.6606 41.3044 15.5341 40.5053C15.4075 39.7062 14.6574 39.1611 13.8581 39.2876L8.12899 40.195C7.32997 40.3216 6.78475 41.0719 6.91132 41.871L7.81874 47.6001C7.933 48.3216 8.55575 48.8359 9.26376 48.8359C9.33993 48.8359 9.41708 48.83 9.49471 48.8177C10.2937 48.6911 10.839 47.9408 10.7124 47.1417L10.4231 45.3152C14.6435 48.3573 19.6952 50 25 50C31.6777 50 37.9557 47.3996 42.6777 42.6777C47.3997 37.9559 50 31.6777 50 25C50 20.7204 48.8997 16.4968 46.818 12.7858Z" fill="white"/>
<path d="M39.5616 29.0389C40.3706 29.0389 41.0264 28.3831 41.0264 27.5741V22.4257C41.0264 21.6167 40.3706 20.9609 39.5616 20.9609H37.3002C37.0973 20.3424 36.8477 19.7406 36.5528 19.1589L38.1525 17.5592C38.7246 16.9872 38.7246 16.0597 38.1525 15.4876L34.5122 11.8473C33.9402 11.2753 33.0127 11.2752 32.4406 11.8473L30.8409 13.447C30.2592 13.1521 29.6574 12.9025 29.0389 12.6996V10.4382C29.0389 9.62925 28.3831 8.97339 27.5741 8.97339H22.4257C21.6167 8.97339 20.9609 9.62925 20.9609 10.4382V12.6996C20.3424 12.9025 19.7406 13.1521 19.1589 13.447L17.5592 11.8473C16.9873 11.2752 16.0597 11.2752 15.4876 11.8473L11.8473 15.4876C11.2752 16.0596 11.2752 16.9872 11.8473 17.5592L13.447 19.1589C13.1521 19.7406 12.9025 20.3424 12.6996 20.9609H10.4382C9.62925 20.9609 8.97339 21.6167 8.97339 22.4257V27.5741C8.97339 28.3831 9.62925 29.0389 10.4382 29.0389H12.6996C12.9025 29.6574 13.1521 30.2592 13.447 30.8409L11.8473 32.4406C11.2752 33.0126 11.2752 33.9401 11.8473 34.5122L15.4876 38.1525C16.0597 38.7245 16.9872 38.7246 17.5592 38.1525L19.1592 36.5526C19.7402 36.8467 20.3417 37.0959 20.9609 37.2988V39.5616C20.9609 40.3706 21.6167 41.0264 22.4257 41.0264H27.5741C28.3831 41.0264 29.0389 40.3706 29.0389 39.5616V37.2988C29.6581 37.0959 30.2596 36.8468 30.8406 36.5526L32.4406 38.1525C33.0125 38.7246 33.9401 38.7246 34.5122 38.1525L38.1525 34.5122C38.7246 33.9402 38.7246 33.0126 38.1525 32.4406L36.5528 30.8409C36.8477 30.2592 37.0973 29.6574 37.3002 29.0389H39.5616ZM36.1886 26.1092C35.5056 26.1092 34.9132 26.5812 34.7608 27.2469C34.5122 28.3322 34.0844 29.3634 33.4896 30.3119C33.1267 30.8905 33.2119 31.643 33.6948 32.1259L35.0452 33.4763L33.4764 35.0451L32.126 33.6947C31.643 33.2118 30.8904 33.1266 30.312 33.4895C29.367 34.0821 28.3358 34.5092 27.2466 34.759C26.5811 34.9117 26.1093 35.504 26.1093 36.1868V38.0965H23.8907V36.1868C23.8907 35.504 23.4189 34.9117 22.7534 34.759C21.6643 34.5092 20.633 34.0821 19.688 33.4895C19.1096 33.1267 18.357 33.2118 17.874 33.6947L16.5236 35.0451L14.9548 33.4763L16.3052 32.1259C16.7881 31.643 16.8732 30.8905 16.5104 30.3119C15.9156 29.3634 15.4879 28.3323 15.2392 27.2469C15.0867 26.5812 14.4944 26.1092 13.8114 26.1092H11.9033V23.8906H13.8114C14.4944 23.8906 15.0868 23.4186 15.2392 22.7529C15.4878 21.6676 15.9156 20.6364 16.5104 19.6879C16.8733 19.1093 16.7881 18.3568 16.3052 17.8739L14.9548 16.5235L16.5236 14.9547L17.874 16.3051C18.3569 16.7879 19.1094 16.8731 19.688 16.5103C20.6365 15.9155 21.6676 15.4878 22.753 15.2391C23.4187 15.0866 23.8907 14.4943 23.8907 13.8113V11.9032H26.1093V13.8113C26.1093 14.4943 26.5813 15.0867 27.247 15.2391C28.3323 15.4877 29.3635 15.9155 30.312 16.5103C30.8907 16.8733 31.6431 16.788 32.126 16.3051L33.4764 14.9547L35.0452 16.5235L33.6948 17.8739C33.2119 18.3568 33.1268 19.1093 33.4896 19.6879C34.0844 20.6364 34.5121 21.6675 34.7608 22.7529C34.9133 23.4186 35.5056 23.8906 36.1886 23.8906H38.0967V26.1092H36.1886Z" fill="white"/>
</g>
<defs>
<clipPath id="clip0_243_5219">
<rect width="50" height="50" fill="white"/>
</clipPath>
</defs>
</svg>
