<svg width="50" height="50" viewBox="0 0 50 50" fill="none" xmlns="http://www.w3.org/2000/svg">
<g clip-path="url(#clip0_243_5199)">
<path d="M29.6996 17.1183L35.4666 11.3513L29.6996 5.58428C29.0894 4.97412 29.0894 3.98477 29.6996 3.37461C30.3098 2.76436 31.2991 2.76436 31.9093 3.37461L37.6763 9.1416L43.4433 3.37461C44.0536 2.76445 45.043 2.76445 45.6529 3.37461C46.2632 3.98477 46.2632 4.97412 45.6529 5.58428L39.8859 11.3513L45.6529 17.1183C46.2632 17.7285 46.2632 18.7178 45.6529 19.3279C45.3478 19.6331 44.9479 19.7856 44.5481 19.7856C44.1483 19.7856 43.7484 19.6331 43.4434 19.3279L37.6764 13.5609L31.9094 19.3279C31.6043 19.633 31.2044 19.7856 30.8046 19.7856C30.4046 19.7856 30.0049 19.6331 29.6998 19.3279C29.0894 18.7178 29.0894 17.7284 29.6996 17.1183ZM49.9999 40.49C49.9999 40.9045 49.8353 41.3019 49.5422 41.5948L45.5032 45.6338C42.6678 48.4693 38.8326 50.0005 34.6187 50.0005C34.2917 50.0005 33.9625 49.9912 33.6312 49.9727C29.2499 49.7273 24.9586 47.8082 21.8577 44.7073L5.29228 28.1419C2.1914 25.0413 0.272359 20.7501 0.0270466 16.3687C-0.230571 11.7686 1.31045 7.55225 4.36601 4.49668L8.40498 0.457617C9.01513 -0.152539 10.0045 -0.152539 10.6146 0.457617L21.7958 11.6388C22.0889 11.9318 22.2535 12.3292 22.2535 12.7437C22.2535 13.1581 22.0889 13.5555 21.7958 13.8485L15.379 20.2653C15.3731 20.2712 15.3555 20.2889 15.3555 20.3271C15.3555 20.3652 15.3732 20.3829 15.379 20.3887L29.6112 34.6209C29.6172 34.6268 29.6348 34.6444 29.6729 34.6444C29.7111 34.6444 29.7287 34.6267 29.7346 34.6209L36.1514 28.2041C36.7615 27.5939 37.7509 27.5939 38.361 28.2041L49.5422 39.3853C49.8353 39.6782 49.9999 40.0757 49.9999 40.49ZM7.68056 5.60146L16.6519 14.5729L18.4812 12.7437L9.50986 3.77217L7.68056 5.60146ZM42.1114 44.4519L33.2173 35.5576L31.9443 36.8306C31.3391 37.436 30.5323 37.7694 29.6729 37.7694C28.8136 37.7694 28.0068 37.4359 27.4015 36.8305L13.1693 22.5983C11.9169 21.3459 11.9169 19.308 13.1693 18.0555L14.4422 16.7826L5.54804 7.88838C1.70888 12.9725 2.45117 20.8815 7.50195 25.9324L24.0674 42.4978C29.1185 47.5489 37.0275 48.291 42.1114 44.4519ZM46.2276 40.49L37.2562 31.5187L35.427 33.3479L44.3983 42.3194L46.2276 40.49Z" fill="white"/>
</g>
<defs>
<clipPath id="clip0_243_5199">
<rect width="50" height="50" fill="white"/>
</clipPath>
</defs>
</svg>
