<svg width="41" height="41" viewBox="0 0 41 41" fill="none" xmlns="http://www.w3.org/2000/svg">
<path d="M18.5544 0.0757161C9.4139 0.856953 1.86195 7.78392 0.273433 16.8593C-0.0911443 18.9165 -0.0911443 21.8332 0.273433 23.8904C1.41925 30.4137 5.66397 35.9866 11.6534 38.799C17.1742 41.4031 23.5413 41.3901 29.049 38.786C34.8041 36.0647 38.9837 30.7783 40.2728 24.5805C43.0592 11.2083 32.187 -1.08312 18.5544 0.0757161ZM24.2444 4.26835C27.4735 5.11469 29.8563 6.46884 32.1088 8.76046C33.8666 10.5443 35.0254 12.3542 35.8718 14.6458C36.5358 16.4426 36.7572 17.5884 36.8353 19.7889C36.9916 24.281 35.6504 28.057 32.6948 31.4033C30.1818 34.2418 26.7964 36.1037 22.9684 36.7287C21.1194 37.0282 18.0986 36.911 16.406 36.4813C13.3201 35.6741 10.7941 34.2418 8.64569 32.0934C6.41916 29.8539 5.09106 27.5232 4.21868 24.281C3.90618 23.1482 3.88014 22.8357 3.88014 20.3748C3.88014 17.914 3.90618 17.6015 4.21868 16.4687C4.96085 13.7474 5.96344 11.7552 7.66914 9.72399C9.67431 7.31518 12.3435 5.53135 15.3904 4.55481C17.3044 3.95586 18.2419 3.83867 20.7288 3.89075C22.6298 3.92982 23.2158 3.99492 24.2444 4.26835Z" fill="white"/>
<path d="M14.2448 20.531L14.2839 26.9502L16.3411 26.9893L18.3853 27.0283V20.5701V14.1249H16.302H14.2188L14.2448 20.531Z" fill="white"/>
<path d="M22.5518 20.5699V27.0151H24.57H26.5881V20.5699V14.1247H24.57H22.5518V20.5699Z" fill="white"/>
</svg>