<svg width="41" height="41" viewBox="0 0 41 41" fill="none" xmlns="http://www.w3.org/2000/svg">
<path fill-rule="evenodd" clip-rule="evenodd" d="M26.256 22.5851C27.921 21.6231 27.921 19.2191 26.256 18.2561L17.751 13.3391C16.085 12.3761 14 13.5791 14 15.5041V25.3381C14 27.2631 16.085 28.4661 17.751 27.5021L26.256 22.5851Z" fill="white"/>
<path d="M18.5544 0.330111C9.4139 1.11135 1.86195 8.03831 0.273433 17.1137C-0.0911443 19.1709 -0.0911443 22.0876 0.273433 24.1448C1.41925 30.6681 5.66397 36.241 11.6534 39.0534C17.1742 41.6575 23.5413 41.6445 29.049 39.0404C34.8041 36.3191 38.9837 31.0327 40.2728 24.8349C43.0592 11.4627 32.187 -0.828724 18.5544 0.330111ZM24.2444 4.52275C27.4735 5.36909 29.8563 6.72323 32.1088 9.01486C33.8666 10.7987 35.0254 12.6085 35.8718 14.9002C36.5358 16.697 36.7572 17.8428 36.8353 20.0433C36.9916 24.5354 35.6504 28.3114 32.6948 31.6577C30.1818 34.4962 26.7964 36.3581 22.9684 36.9831C21.1194 37.2826 18.0986 37.1654 16.406 36.7357C13.3201 35.9285 10.7941 34.4962 8.64569 32.3478C6.41916 30.1082 5.09106 27.7776 4.21868 24.5354C3.90618 23.4026 3.88014 23.0901 3.88014 20.6292C3.88014 18.1683 3.90618 17.8559 4.21868 16.7231C4.96085 14.0018 5.96344 12.0096 7.66914 9.97838C9.67431 7.56957 12.3435 5.78575 15.3904 4.8092C17.3044 4.21025 18.2419 4.09307 20.7288 4.14515C22.6298 4.18421 23.2158 4.24931 24.2444 4.52275Z" fill="white"/>
</svg>