<svg width="51" height="52" viewBox="0 0 51 52" fill="none" xmlns="http://www.w3.org/2000/svg">
<path d="M23.4762 5.57279C14.3358 6.35402 6.78382 13.281 5.19531 22.3564C4.83073 24.4136 4.83073 27.3302 5.19531 29.3875C6.34112 35.9108 10.5858 41.4836 16.5753 44.2961C22.0961 46.9002 28.4631 46.8872 33.9709 44.2831C39.726 41.5618 43.9056 36.2754 45.1946 30.0776C47.981 16.7054 37.1088 4.41395 23.4762 5.57279ZM29.1663 9.76542C32.3954 10.6118 34.7781 11.9659 37.0307 14.2575C38.7885 16.0414 39.9473 17.8512 40.7937 20.1428C41.4577 21.9397 41.6791 23.0855 41.7572 25.286C41.9134 29.7781 40.5723 33.5541 37.6166 36.9004C35.1037 39.7389 31.7183 41.6008 27.8902 42.2258C26.0413 42.5253 23.0205 42.4081 21.3278 41.9784C18.242 41.1711 15.716 39.7389 13.5676 37.5905C11.341 35.3509 10.0129 33.0202 9.14055 29.7781C8.82806 28.6453 8.80202 28.3328 8.80202 25.8719C8.80202 23.411 8.82806 23.0985 9.14055 21.9657C9.88273 19.2444 10.8853 17.2523 12.591 15.2211C14.5962 12.8122 17.2654 11.0284 20.3122 10.0519C22.2263 9.45293 23.1638 9.33574 25.6507 9.38783C27.5517 9.42689 28.1376 9.49199 29.1663 9.76542Z" fill="white"/>
<path d="M19.1664 26.0284L19.2055 32.4475L21.2627 32.4866L23.307 32.5256V26.0674V19.6222H21.2237H19.1404L19.1664 26.0284Z" fill="white"/>
<path d="M27.4734 26.0672V32.5125H29.4916H31.5098V26.0672V19.622H29.4916H27.4734V26.0672Z" fill="white"/>
</svg>
