<svg width="42" height="42" viewBox="0 0 42 42" fill="none" xmlns="http://www.w3.org/2000/svg"><path d="M19.4762 0.960836C10.3358 1.74207 2.78382 8.66904 1.19531 17.7444C0.830731 19.8017 0.830731 22.7183 1.19531 24.7755C2.34112 31.2989 6.58584 36.8717 12.5753 39.6841C18.0961 42.2883 24.4631 42.2752 29.9709 39.6711C35.726 36.9498 39.9056 31.6634 41.1946 25.4656C43.981 12.0935 33.1088 -0.197998 19.4762 0.960836ZM25.1663 5.15347C28.3954 5.99981 30.7781 7.35396 33.0307 9.64558C34.7885 11.4294 35.9473 13.2393 36.7937 15.5309C37.4577 17.3277 37.6791 18.4736 37.7572 20.674C37.9134 25.1662 36.5723 28.9421 33.6166 32.2884C31.1037 35.1269 27.7183 36.9889 23.8902 37.6139C22.0413 37.9133 19.0205 37.7961 17.3278 37.3665C14.242 36.5592 11.716 35.1269 9.56756 32.9785C7.34104 30.739 6.01293 28.4083 5.14055 25.1662C4.82806 24.0334 4.80202 23.7209 4.80202 21.26C4.80202 18.7991 4.82806 18.4866 5.14055 17.3538C5.88273 14.6325 6.88532 12.6403 8.59102 10.6091C10.5962 8.2003 13.2654 6.41647 16.3122 5.43993C18.2263 4.84098 19.1638 4.72379 21.6507 4.77588C23.5517 4.81494 24.1376 4.88004 25.1663 5.15347Z" fill="white"/>   <path d="M27.0629 20.9997L17.368 28.0049L17.2584 14.1489L27.0629 20.9997Z" fill="white"/></svg>