<svg width="36" height="36" viewBox="0 0 36 36" fill="none" xmlns="http://www.w3.org/2000/svg">
<path d="M29.3999 16.2H30.5999V17.4H29.3999V16.2Z" fill="#0075D6"/>
<path d="M34.2 12H25.8C25.323 12.0014 24.866 12.1915 24.5288 12.5288C24.1915 12.866 24.0014 13.323 24 13.8V18H21C20.8409 18 20.6883 18.0632 20.5757 18.1757C20.4632 18.2883 20.4 18.4409 20.4 18.6V19.8C20.4016 20.0047 20.4381 20.2076 20.508 20.4H17.4V15.336C17.4 14.9348 17.266 14.5451 17.0193 14.2288C16.7725 13.9124 16.4271 13.6876 16.038 13.59L12.6 12.732V11.244C12.8922 11.0415 13.1565 10.8015 13.386 10.53C13.5696 10.9656 13.8776 11.3374 14.2714 11.5988C14.6652 11.8603 15.1273 11.9998 15.6 12H17.4C17.5591 12 17.7117 11.9368 17.8243 11.8243C17.9368 11.7117 18 11.5591 18 11.4V9.6C17.9987 9.04619 17.8064 8.50977 17.4555 8.08129C17.1046 7.65281 16.6167 7.35849 16.074 7.248C16.1555 7.04158 16.1982 6.82191 16.2 6.6C16.2 6.12261 16.0104 5.66477 15.6728 5.32721C15.3352 4.98964 14.8774 4.8 14.4 4.8V4.2C14.4 3.08609 13.9575 2.0178 13.1698 1.23015C12.3822 0.442499 11.3139 0 10.2 0C9.08609 0 8.01781 0.442499 7.23015 1.23015C6.4425 2.0178 6 3.08609 6 4.2V4.8C5.52261 4.8 5.06477 4.98964 4.72721 5.32721C4.38964 5.66477 4.2 6.12261 4.2 6.6C4.20182 6.82191 4.24453 7.04158 4.326 7.248C3.78332 7.35849 3.29536 7.65281 2.94449 8.08129C2.59361 8.50977 2.4013 9.04619 2.4 9.6V11.4C2.4 11.5591 2.46321 11.7117 2.57574 11.8243C2.68826 11.9368 2.84087 12 3 12H4.8C5.27269 11.9998 5.73484 11.8603 6.12864 11.5988C6.52244 11.3374 6.8304 10.9656 7.014 10.53C7.24352 10.8015 7.50779 11.0415 7.8 11.244V12.732L4.362 13.59C3.97287 13.6876 3.6275 13.9124 3.38074 14.2288C3.13398 14.5451 2.99998 14.9348 3 15.336V20.4H0.6C0.44087 20.4 0.288258 20.4632 0.175736 20.5757C0.0632141 20.6883 0 20.8409 0 21V24.6C0 24.7591 0.0632141 24.9117 0.175736 25.0243C0.288258 25.1368 0.44087 25.2 0.6 25.2H2.4V35.4C2.4 35.5591 2.46321 35.7117 2.57574 35.8243C2.68826 35.9368 2.84087 36 3 36H33C33.1591 36 33.3117 35.9368 33.4243 35.8243C33.5368 35.7117 33.6 35.5591 33.6 35.4V25.2H35.4C35.5591 25.2 35.7117 25.1368 35.8243 25.0243C35.9368 24.9117 36 24.7591 36 24.6V13.8C35.9986 13.323 35.8085 12.866 35.4712 12.5288C35.134 12.1915 34.677 12.0014 34.2 12ZM14.4 6C14.4801 5.9993 14.5594 6.0155 14.6328 6.04755C14.7063 6.0796 14.7721 6.12678 14.826 6.186C14.8822 6.23914 14.9266 6.3034 14.9566 6.37468C14.9865 6.44596 15.0013 6.52269 15 6.6C15 6.75913 14.9368 6.91174 14.8243 7.02426C14.7117 7.13679 14.5591 7.2 14.4 7.2V6ZM14.4 8.4H15.6C15.918 8.40095 16.2226 8.52768 16.4475 8.75252C16.6723 8.97736 16.7991 9.28203 16.8 9.6V10.8H15.6C15.282 10.7991 14.9774 10.6723 14.7525 10.4475C14.5277 10.2226 14.401 9.91797 14.4 9.6V8.4ZM6 9.6C5.99905 9.91797 5.87232 10.2226 5.64748 10.4475C5.42264 10.6723 5.11797 10.7991 4.8 10.8H3.6V9.6C3.60095 9.28203 3.72768 8.97736 3.95252 8.75252C4.17736 8.52768 4.48203 8.40095 4.8 8.4H6V9.6ZM6 7.2C5.84087 7.2 5.68826 7.13679 5.57574 7.02426C5.46321 6.91174 5.4 6.75913 5.4 6.6C5.3993 6.51991 5.4155 6.44056 5.44755 6.36716C5.4796 6.29375 5.52678 6.22793 5.586 6.174C5.63914 6.11784 5.7034 6.07337 5.77468 6.04341C5.84596 6.01345 5.92269 5.99867 6 6V7.2ZM21.6 19.2H24V20.4H22.2C22.0409 20.4 21.8883 20.3368 21.7757 20.2243C21.6632 20.1117 21.6 19.9591 21.6 19.8V19.2ZM7.2 4.2C7.2 3.40435 7.51607 2.64129 8.07868 2.07868C8.64129 1.51607 9.40435 1.2 10.2 1.2C10.9957 1.2 11.7587 1.51607 12.3213 2.07868C12.8839 2.64129 13.2 3.40435 13.2 4.2V5.028L10.47 3.666C10.3869 3.62167 10.2942 3.59848 10.2 3.59848C10.1058 3.59848 10.0131 3.62167 9.93 3.666L7.2 5.028V4.2ZM7.2 7.8V6.372L10.2 4.872L13.2 6.372V7.8C13.2 8.59565 12.8839 9.35871 12.3213 9.92132C11.7587 10.4839 10.9957 10.8 10.2 10.8C9.40435 10.8 8.64129 10.4839 8.07868 9.92132C7.51607 9.35871 7.2 8.59565 7.2 7.8ZM11.4 11.826V13.2C11.4 13.5183 11.2736 13.8235 11.0485 14.0485C10.8235 14.2736 10.5183 14.4 10.2 14.4C9.88174 14.4 9.57652 14.2736 9.35147 14.0485C9.12643 13.8235 9 13.5183 9 13.2V11.826C9.78318 12.058 10.6168 12.058 11.4 11.826ZM4.2 15.336C4.2001 15.202 4.24506 15.0719 4.3277 14.9664C4.41035 14.8609 4.52592 14.7862 4.656 14.754L7.926 13.938C8.03013 14.2556 8.19909 14.5482 8.42218 14.7971C8.64528 15.046 8.91763 15.2458 9.222 15.384L7.302 18.27L8.298 18.93L10.2 16.08L12.102 18.93L13.098 18.27L11.178 15.384C11.4824 15.2458 11.7547 15.046 11.9778 14.7971C12.2009 14.5482 12.3699 14.2556 12.474 13.938L15.744 14.754C15.8741 14.7862 15.9897 14.8609 16.0723 14.9664C16.1549 15.0719 16.1999 15.202 16.2 15.336V20.4H4.2V15.336ZM32.4 34.8H3.6V25.2H32.4V34.8ZM34.8 24H1.2V21.6H34.8V24ZM34.8 20.4H25.2V13.8C25.2 13.6409 25.2632 13.4883 25.3757 13.3757C25.4883 13.2632 25.6409 13.2 25.8 13.2H34.2C34.3591 13.2 34.5117 13.2632 34.6243 13.3757C34.7368 13.4883 34.8 13.6409 34.8 13.8V20.4Z" fill="#0075D6"/>
<path d="M29.9999 3.59998C30.7093 3.59833 31.4119 3.73731 32.0672 4.00888C32.7225 4.28046 33.3175 4.67925 33.8177 5.18218L34.6661 4.33378C34.0535 3.7207 33.3261 3.23435 32.5255 2.90252C31.7248 2.5707 30.8666 2.3999 29.9999 2.3999C29.1333 2.3999 28.2751 2.5707 27.4744 2.90252C26.6738 3.23435 25.9463 3.7207 25.3337 4.33378L26.1821 5.18218C26.6824 4.67925 27.2773 4.28046 27.9326 4.00888C28.588 3.73731 29.2906 3.59833 29.9999 3.59998Z" fill="#0075D6"/>
<path d="M32.97 6.03359C32.5805 5.64261 32.1177 5.33238 31.608 5.1207C31.0984 4.90902 30.5519 4.80005 30 4.80005C29.4482 4.80005 28.9017 4.90902 28.392 5.1207C27.8824 5.33238 27.4195 5.64261 27.03 6.03359L27.882 6.87839C28.16 6.59996 28.4901 6.37906 28.8536 6.22834C29.217 6.07763 29.6066 6.00005 30 6.00005C30.3935 6.00005 30.7831 6.07763 31.1465 6.22834C31.5099 6.37906 31.8401 6.59996 32.118 6.87839L32.97 6.03359Z" fill="#0075D6"/>
<path d="M28.7244 7.73514L29.5836 8.57514C29.6954 8.46735 29.8447 8.40712 30 8.40712C30.1553 8.40712 30.3045 8.46735 30.4164 8.57514L31.2756 7.73514C30.9339 7.40321 30.4763 7.21753 30 7.21753C29.5236 7.21753 29.066 7.40321 28.7244 7.73514Z" fill="#0075D6"/>
<path d="M8.3999 6.6001H9.5999V7.8001H8.3999V6.6001Z" fill="#0075D6"/>
<path d="M10.8 6.6001H12V7.8001H10.8V6.6001Z" fill="#0075D6"/>
</svg>
