<svg width="36" height="36" viewBox="0 0 36 36" fill="none" xmlns="http://www.w3.org/2000/svg">
<path d="M33.7894 15.2358C33.6488 11.2285 32.026 7.48115 29.1765 4.63164C26.1898 1.64437 22.2203 -0.000244141 18 -0.000244141C9.47617 -0.000244141 2.5114 6.78428 2.21118 15.2358C0.910419 15.8138 0 17.1158 0 18.6289V22.7976C0 24.8446 1.66528 26.5104 3.71286 26.5104C5.03773 26.5104 6.1152 25.433 6.1152 24.1081V17.3178C6.1152 16.0739 5.16115 15.0596 3.94821 14.939C4.39596 7.57587 10.5255 1.72186 18 1.72186C21.7611 1.72186 25.2977 3.18795 27.9595 5.84975C30.4038 8.29399 31.8343 11.4799 32.0495 14.9396C30.8377 15.0613 29.8854 16.075 29.8854 17.3178V24.1075C29.8854 25.3618 30.8544 26.3824 32.0817 26.4886V28.2044C32.0817 30.1366 30.5094 31.7083 28.5772 31.7083H25.982C25.8545 31.3444 25.6548 31.008 25.3746 30.729C24.8838 30.2359 24.2294 29.9644 23.5326 29.9644H20.8576C20.4735 29.9644 20.105 30.0459 19.7675 30.2032C18.8467 30.6262 18.252 31.555 18.252 32.5694C18.252 33.2662 18.5235 33.9206 19.0155 34.4103C19.5074 34.9034 20.1618 35.1749 20.8576 35.1749H23.5326C24.6416 35.1749 25.6192 34.4579 25.9837 33.4304H28.5772C31.4594 33.4304 33.8038 31.0861 33.8038 28.2044V26.1821C35.0965 25.6006 36 24.3033 36 22.7964V18.6278C36 17.1158 35.0896 15.8138 33.7894 15.2358ZM4.39252 17.3178V24.1075C4.39252 24.4824 4.0877 24.7877 3.71228 24.7877C2.61473 24.7877 1.72153 23.8945 1.72153 22.797V18.6283C1.72153 17.5302 2.61473 16.6376 3.71228 16.6376C4.0877 16.6376 4.39252 16.943 4.39252 17.3178ZM24.3965 32.7542C24.311 33.1595 23.947 33.4539 23.532 33.4539H20.857C20.6216 33.4539 20.4006 33.3621 20.2319 33.1933C20.0654 33.0274 19.9735 32.8059 19.9735 32.5705C19.9735 32.2267 20.175 31.9127 20.4908 31.7674C20.6033 31.7146 20.7267 31.6876 20.857 31.6876H23.532C23.7673 31.6876 23.9883 31.7789 24.1565 31.9477C24.323 32.1136 24.4149 32.3352 24.4149 32.5705C24.4154 32.6336 24.4085 32.6968 24.3965 32.7542ZM34.2779 22.797C34.2779 23.8945 33.3847 24.7877 32.2872 24.7877C31.9123 24.7877 31.6069 24.4829 31.6069 24.1075V17.3178C31.6069 16.943 31.9118 16.6376 32.2872 16.6376C33.3847 16.6376 34.2779 17.5308 34.2779 18.6283V22.797Z" fill="#0075D6"/>
<path d="M23.5757 23.0935C25.5876 23.0935 27.2242 21.4564 27.2242 19.445V12.0106C27.2242 11.0382 26.8442 10.1221 26.1542 9.43206C25.4642 8.74207 24.5486 8.36206 23.5757 8.36206H12.4244C10.4125 8.36206 8.77588 9.99863 8.77588 12.0106V19.445C8.77588 21.4569 10.4125 23.0935 12.4244 23.0935H12.4928V25.02C12.4928 25.7547 12.9307 26.4068 13.6081 26.6818C13.8268 26.7696 14.0541 26.8133 14.2792 26.8133C14.7481 26.8133 15.2051 26.6273 15.5397 26.2811L18.7446 23.0935H23.5757ZM17.7831 21.6217L14.3147 25.0711C14.2992 25.0871 14.2878 25.0992 14.255 25.0848C14.2154 25.0688 14.2154 25.0429 14.2154 25.02V22.2325C14.2154 21.7572 13.8303 21.3714 13.3544 21.3714H12.425C11.3625 21.3714 10.4986 20.5069 10.4986 19.445V12.0106C10.4986 10.9481 11.3625 10.0842 12.425 10.0842H23.5762C24.0894 10.0842 24.5722 10.2851 24.9373 10.6496C25.3023 11.0147 25.5027 11.498 25.5027 12.0106V19.445C25.5027 20.5075 24.6382 21.3714 23.5762 21.3714H18.3904C18.1625 21.3714 17.9444 21.4615 17.7831 21.6217Z" fill="#0075D6"/>
<path d="M13.817 14.595C13.1166 14.595 12.5466 15.1656 12.5466 15.8653C12.5466 16.5651 13.1172 17.1356 13.817 17.1356C14.5179 17.1356 15.0885 16.5651 15.0885 15.8653C15.0885 15.1656 14.5184 14.595 13.817 14.595Z" fill="#0075D6"/>
<path d="M17.9993 14.595C17.299 14.595 16.729 15.1656 16.729 15.8653C16.729 16.5651 17.2996 17.1356 17.9993 17.1356C18.7008 17.1356 19.2708 16.5651 19.2708 15.8653C19.2708 15.1656 18.7008 14.595 17.9993 14.595Z" fill="#0075D6"/>
<path d="M22.1817 14.595C21.4814 14.595 20.9114 15.1656 20.9114 15.8653C20.9114 16.5651 21.482 17.1356 22.1817 17.1356C22.8826 17.1356 23.4532 16.5651 23.4532 15.8653C23.4532 15.1656 22.8826 14.595 22.1817 14.595Z" fill="#0075D6"/>
</svg>
