<svg width="18" height="14" viewBox="0 0 18 14" fill="none" xmlns="http://www.w3.org/2000/svg">
<path d="M6.50833 4.79786C5.46745 4.79786 4.62061 5.7308 4.62061 6.87753C4.62061 8.02426 5.46745 8.95721 6.50833 8.95721C7.54924 8.95721 8.39612 8.02426 8.39612 6.87753C8.39612 5.7308 7.54924 4.79786 6.50833 4.79786ZM6.50833 7.90252C6.04901 7.90252 5.6753 7.44271 5.6753 6.87753C5.6753 6.31236 6.04901 5.85255 6.50833 5.85255C6.96768 5.85255 7.34143 6.31236 7.34143 6.87753C7.34143 7.44271 6.96768 7.90252 6.50833 7.90252Z" fill="white"/>
<path d="M11.4918 4.79786C10.4509 4.79786 9.604 5.7308 9.604 6.87753C9.604 8.02426 10.4509 8.95721 11.4918 8.95721C12.5327 8.95721 13.3795 8.02426 13.3795 6.87753C13.3795 5.7308 12.5327 4.79786 11.4918 4.79786ZM11.4918 7.90252C11.0324 7.90252 10.6587 7.44271 10.6587 6.87753C10.6587 6.31236 11.0324 5.85255 11.4918 5.85255C11.9511 5.85255 12.3248 6.31236 12.3248 6.87753C12.3248 7.44271 11.9511 7.90252 11.4918 7.90252Z" fill="white"/>
<path d="M17.9993 10.403C17.9868 10.18 17.6715 4.90599 15.6687 1.7511C15.6278 1.68658 15.5732 1.6317 15.509 1.59036C13.0326 -0.00429676 11.3457 0.000273622 11.2752 -7.62939e-06C11.0706 0.00269941 10.8945 0.121669 10.8093 0.293583L9.95858 1.92392C9.64168 1.90318 9.32172 1.89242 9.00004 1.89242C8.67843 1.89242 8.35844 1.90318 8.04154 1.92392L7.19174 0.295482C7.10698 0.122583 6.93025 0.00273455 6.7249 2.75077e-05C6.65392 -0.000394369 4.96729 -0.00412094 2.49116 1.5904C2.42693 1.63177 2.3724 1.68662 2.33144 1.75113C0.328654 4.90599 0.0132663 10.18 0.000820923 10.403C-0.00698379 10.5428 0.0411101 10.6799 0.134521 10.7842C0.227404 10.8878 2.43378 13.3123 5.48349 13.3123C5.49713 13.3123 5.51116 13.3122 5.52483 13.3121C5.68511 13.311 5.83611 13.237 5.93529 13.1112L7.342 11.326C7.88228 11.3877 8.43722 11.4198 9.00004 11.4198C9.56289 11.4198 10.1178 11.3877 10.6581 11.326L12.0648 13.1112C12.164 13.237 12.315 13.311 12.4752 13.3121C12.4891 13.3122 12.5027 13.3123 12.5166 13.3123C15.566 13.3123 17.7727 10.8878 17.8656 10.7842C17.9589 10.6799 18.007 10.5428 17.9993 10.403ZM12.7311 12.2526L11.8516 11.1365C13.1904 10.8611 14.392 10.3924 15.3299 9.76316C15.5717 9.60091 15.6363 9.27329 15.474 9.03145C15.3118 8.78958 14.9841 8.72496 14.7423 8.88731C13.3424 9.82651 11.2494 10.3651 9.00004 10.3651C6.75074 10.3651 4.65774 9.82651 3.25778 8.88741C3.01587 8.72517 2.68831 8.78975 2.52607 9.03159C2.36382 9.27347 2.42837 9.60105 2.67024 9.7633C3.60822 10.3925 4.80979 10.8611 6.14851 11.1365L5.26907 12.2526C3.20423 12.1568 1.56103 10.7128 1.07035 10.2336C1.15226 9.2118 1.5773 4.9975 3.16085 2.41418C4.71585 1.43261 5.88934 1.15963 6.41345 1.08376L6.91379 2.04251C5.73743 2.21428 4.63531 2.52995 3.69653 2.97194C3.43303 3.09597 3.32 3.41016 3.44403 3.67369C3.5681 3.93715 3.88229 4.05015 4.14576 3.92618C5.48683 3.29481 7.21079 2.94712 9.00004 2.94712C10.7894 2.94712 12.5134 3.29488 13.8544 3.92633C13.927 3.9605 14.0034 3.9767 14.0787 3.9767C14.2766 3.9767 14.4663 3.86473 14.5562 3.67387C14.6802 3.41041 14.5672 3.09618 14.3037 2.97211C13.3648 2.53009 12.2627 2.21435 11.0863 2.04258L11.5866 1.08383C12.1107 1.1597 13.2842 1.43268 14.8393 2.41425C16.421 4.99487 16.8475 9.21356 16.9297 10.2346C16.4403 10.7148 14.8044 12.1576 12.7311 12.2526Z" fill="white"/>
</svg>
