<svg width="42" height="42" viewBox="0 0 42 42" fill="none" xmlns="http://www.w3.org/2000/svg">
<g id="front_14203395 1">
<g id="_x30_1">
<path id="Vector" d="M27.5625 10.7508V3.9375C27.5625 3.21268 26.9748 2.625 26.25 2.625H3.9375C3.21268 2.625 2.625 3.21268 2.625 3.9375V26.25C2.625 26.9748 3.21268 27.5625 3.9375 27.5625H10.7508C11.9902 34.2726 17.8741 39.375 24.9375 39.375C32.8984 39.375 39.375 32.8984 39.375 24.9375C39.375 17.8741 34.2726 11.9902 27.5625 10.7508ZM36.75 24.9375C36.75 25.1846 36.728 25.4261 36.7129 25.6695L27.5625 16.519V13.4292C32.8147 14.6274 36.75 19.3276 36.75 24.9375ZM25.7065 27.5625L32.3018 34.1578C31.2545 34.9959 30.0615 35.6546 28.7683 36.0998L20.231 27.5625H25.7065ZM5.25 24.9375V5.25H24.9375V24.9375H5.25ZM13.4292 27.5625H16.519L25.6695 36.7129C25.4261 36.728 25.1846 36.75 24.9375 36.75C19.3276 36.75 14.6274 32.8147 13.4292 27.5625ZM34.1578 32.3018L27.5625 25.7065V20.231L36.0998 28.7683C35.6546 30.0615 34.9959 31.2545 34.1578 32.3018Z" fill="white"/>
</g>
</g>
</svg>
