<svg width="42" height="43" viewBox="0 0 42 43" fill="none" xmlns="http://www.w3.org/2000/svg">
<g id="settings_2575590 1" clip-path="url(#clip0_243_14729)">
<g id="Group">
<path id="Vector" d="M21 16.9243C18.4218 16.9243 16.3242 19.0219 16.3242 21.6001C16.3242 24.1783 18.4218 26.2759 21 26.2759C23.5782 26.2759 25.6758 24.1783 25.6758 21.6001C25.6758 19.0219 23.5782 16.9243 21 16.9243ZM21 23.8149C19.7787 23.8149 18.7852 22.8214 18.7852 21.6001C18.7852 20.3788 19.7787 19.3853 21 19.3853C22.2213 19.3853 23.2148 20.3788 23.2148 21.6001C23.2148 22.8214 22.2213 23.8149 21 23.8149Z" fill="white"/>
<path id="Vector_2" d="M2.46094 21.6001C2.46094 11.3776 10.7775 3.06104 21 3.06104C25.0946 3.06104 28.9859 4.38067 32.1904 6.81684L29.9742 7.16777C29.303 7.27408 28.8451 7.90432 28.9514 8.57559C29.0473 9.18163 29.5705 9.61377 30.1652 9.61377C30.2292 9.61377 30.294 9.60877 30.3592 9.59843L35.1716 8.8362C35.8428 8.72989 36.3008 8.09964 36.1945 7.42838L35.4323 2.61593C35.3259 1.94467 34.6958 1.48718 34.0244 1.59309C33.3532 1.6994 32.8953 2.32964 33.0016 3.00091L33.2446 4.53505C29.6993 1.97995 25.456 0.600098 21 0.600098C15.3907 0.600098 10.1172 2.78443 6.1507 6.7508C2.18441 10.7173 0 15.9908 0 21.6001C0 25.1611 0.90784 28.6796 2.62549 31.7752C2.85026 32.1802 3.26985 32.4089 3.70256 32.4089C3.90452 32.4089 4.10927 32.3591 4.29844 32.2541C4.89267 31.9243 5.1071 31.1754 4.77734 30.5811C3.26197 27.8499 2.46094 24.7444 2.46094 21.6001Z" fill="white"/>
<path id="Vector_3" d="M33.2317 24.9932C33.9112 24.9932 34.4621 24.4423 34.4621 23.7628V19.4382C34.4621 18.7586 33.9112 18.2077 33.2317 18.2077H31.3322C31.1617 17.6882 30.952 17.1826 30.7043 16.694L32.048 15.3503C32.5286 14.8698 32.5286 14.0907 32.048 13.6102L28.9902 10.5523C28.5097 10.0718 27.7307 10.0717 27.25 10.5523L25.9063 11.896C25.4177 11.6483 24.9121 11.4386 24.3926 11.2682V9.36865C24.3926 8.68911 23.8417 8.13818 23.1622 8.13818H18.8376C18.158 8.13818 17.6071 8.68911 17.6071 9.36865V11.2682C17.0876 11.4386 16.582 11.6483 16.0935 11.896L14.7497 10.5523C14.2692 10.0717 13.4901 10.0717 13.0096 10.5523L9.9517 13.6102C9.47116 14.0906 9.47116 14.8698 9.9517 15.3503L11.2954 16.694C11.0477 17.1826 10.838 17.6882 10.6676 18.2077H8.76807C8.08852 18.2077 7.5376 18.7586 7.5376 19.4382V23.7628C7.5376 24.4423 8.08852 24.9932 8.76807 24.9932H10.6676C10.838 25.5127 11.0477 26.0183 11.2954 26.5069L9.9517 27.8506C9.47116 28.3312 9.47116 29.1102 9.9517 29.5907L13.0096 32.6486C13.4901 33.1291 14.2692 33.1292 14.7497 32.6486L16.0937 31.3047C16.5817 31.5518 17.087 31.7611 17.6071 31.9315V33.8323C17.6071 34.5118 18.158 35.0627 18.8376 35.0627H23.1622C23.8417 35.0627 24.3926 34.5118 24.3926 33.8323V31.9315C24.9127 31.7611 25.418 31.5519 25.906 31.3047L27.25 32.6486C27.7305 33.1292 28.5096 33.1292 28.9902 32.6486L32.048 29.5907C32.5286 29.1103 32.5286 28.3312 32.048 27.8506L30.7043 26.5069C30.952 26.0183 31.1617 25.5127 31.3322 24.9932H33.2317ZM30.3984 22.5323C29.8247 22.5323 29.3271 22.9287 29.199 23.488C28.9902 24.3996 28.6309 25.2658 28.1312 26.0625C27.8264 26.5485 27.8979 27.1807 28.3036 27.5863L29.4379 28.7206L28.1201 30.0384L26.9858 28.9041C26.5801 28.4984 25.9479 28.4269 25.462 28.7317C24.6683 29.2295 23.802 29.5883 22.8871 29.7981C22.3281 29.9263 21.9318 30.4239 21.9318 30.9974V32.6016H20.0681V30.9974C20.0681 30.4239 19.6718 29.9263 19.1128 29.7981C18.198 29.5883 17.3316 29.2295 16.5379 28.7317C16.052 28.427 15.4198 28.4984 15.0141 28.9041L13.8798 30.0384L12.562 28.7206L13.6963 27.5863C14.102 27.1807 14.1734 26.5485 13.8687 26.0625C13.369 25.2658 13.0098 24.3996 12.8009 23.488C12.6728 22.9287 12.1752 22.5323 11.6015 22.5323H9.9987V20.6686H11.6015C12.1752 20.6686 12.6728 20.2722 12.8009 19.713C13.0097 18.8013 13.369 17.9351 13.8687 17.1384C14.1735 16.6524 14.102 16.0202 13.6963 15.6146L12.562 14.4803L13.8798 13.1625L15.0141 14.2968C15.4197 14.7024 16.0519 14.7739 16.5379 14.4692C17.3346 13.9695 18.2008 13.6103 19.1125 13.4014C19.6717 13.2733 20.0681 12.7757 20.0681 12.202V10.5992H21.9318V12.202C21.9318 12.7757 22.3282 13.2733 22.8875 13.4014C23.7991 13.6102 24.6653 13.9695 25.462 14.4692C25.9481 14.7741 26.5802 14.7025 26.9858 14.2968L28.1201 13.1625L29.4379 14.4803L28.3036 15.6146C27.8979 16.0202 27.8265 16.6524 28.1312 17.1384C28.6309 17.9351 28.9901 18.8013 29.199 19.713C29.3271 20.2722 29.8247 20.6686 30.3984 20.6686H32.0012V22.5323H30.3984Z" fill="white"/>
</g>
</g>
<defs>
<clipPath id="clip0_243_14729">
<rect width="42" height="42" fill="white" transform="translate(0 0.600098)"/>
</clipPath>
</defs>
</svg>
