<svg width="50" height="50" viewBox="0 0 50 50" fill="none" xmlns="http://www.w3.org/2000/svg">
<rect width="50" height="50" rx="25" fill="url(#paint0_linear_309_55)"/>
<path d="M18.625 13V15.8125H13V37H37V13H18.625ZM14.4062 35.5938V17.2188H25.75V21.4375H29.9688V35.5938H14.4062ZM27.1562 18.2132L28.9743 20.0312H27.1562V18.2132ZM35.5938 35.5938H31.375V20.4431L26.7444 15.8125H20.0312V14.4062H35.5938V35.5938Z" fill="white"/>
<path d="M15.8125 18.625H20.7344V20.0312H15.8125V18.625Z" fill="white"/>
<path d="M15.8125 21.4375H22.8438V22.8438H15.8125V21.4375Z" fill="white"/>
<path d="M24.3438 27.1562H28.5625V28.5625H24.3438V27.1562Z" fill="white"/>
<path d="M24.3438 29.9688H28.5625V31.375H24.3438V29.9688Z" fill="white"/>
<path d="M24.3438 32.7812H28.5625V34.1875H24.3438V32.7812Z" fill="white"/>
<path d="M19.3281 27.2031C17.3896 27.2031 15.8125 28.7802 15.8125 30.7188C15.8125 32.6573 17.3896 34.2344 19.3281 34.2344C21.2667 34.2344 22.8438 32.6573 22.8438 30.7188C22.8438 28.7802 21.2667 27.2031 19.3281 27.2031ZM19.3281 32.8281C18.165 32.8281 17.2188 31.8818 17.2188 30.7188C17.2188 29.5557 18.165 28.6094 19.3281 28.6094C20.4912 28.6094 21.4375 29.5557 21.4375 30.7188C21.4375 31.8818 20.4912 32.8281 19.3281 32.8281Z" fill="white"/>
<defs>
<linearGradient id="paint0_linear_309_55" x1="50" y1="0" x2="0" y2="50" gradientUnits="userSpaceOnUse">
<stop stop-color="#00BBFC"/>
<stop offset="0.894784" stop-color="#0075D6"/>
</linearGradient>
</defs>
</svg>
