<svg width="84" height="84" viewBox="0 0 84 84" fill="none" xmlns="http://www.w3.org/2000/svg">
<g id="Icon" filter="url(#filter0_d_308_213)">
<rect x="17" y="17" width="50" height="50" rx="25" fill="url(#paint0_linear_308_213)"/>
<g id="Group">
<g id="Group_2">
<g id="Group_3">
<path id="Vector" d="M54.411 30H32.0337C31.7084 30 31.4448 30.2637 31.4448 30.5889V37.0658C31.4448 37.391 31.7085 37.6546 32.0337 37.6546H34.6837C35.0089 37.6546 35.2725 37.3909 35.2725 37.0658V33.8277H51.1722V49.7274H35.2725V46.4893C35.2725 46.1641 35.0089 45.9005 34.6837 45.9005H32.0337C31.7084 45.9005 31.4448 46.1642 31.4448 46.4893V52.9662C31.4448 53.2914 31.7085 53.5551 32.0337 53.5551H54.411C54.7363 53.5551 54.9999 53.2914 54.9999 52.9662V30.5889C54.9999 30.2637 54.7363 30 54.411 30ZM53.8221 52.3773H32.6226V47.0782H34.0948V50.3163C34.0948 50.6415 34.3584 50.9051 34.6837 50.9051H51.7611C52.0863 50.9051 52.3499 50.6414 52.3499 50.3163V33.2388C52.3499 32.9136 52.0862 32.65 51.7611 32.65H34.6837C34.3584 32.65 34.0948 32.9137 34.0948 33.2388V36.4769H32.6226V31.1778H53.8222V52.3773H53.8221Z" fill="white"/>
<path id="Vector_2" d="M37.2623 47.9304C37.2623 48.154 37.3891 48.3585 37.5894 48.4579C37.6724 48.499 37.7619 48.5192 37.8511 48.5192C37.9775 48.5192 38.103 48.4786 38.2074 48.3992L46.3052 42.2463C46.4517 42.1349 46.5378 41.9615 46.5378 41.7774C46.5378 41.5934 46.4518 41.4199 46.3052 41.3086L38.2074 35.1557C38.0293 35.0203 37.7898 34.9975 37.5894 35.097C37.389 35.1964 37.2622 35.4008 37.2622 35.6245V38.8323H29.5889C29.2637 38.8323 29 39.096 29 39.4212V44.1337C29 44.4589 29.2637 44.7226 29.5889 44.7226H37.2622V47.9304H37.2623ZM30.1778 43.5449V43.5448V40.0101H37.8511C38.1764 40.0101 38.44 39.7464 38.44 39.4212V36.8116L44.9755 41.7775L38.44 46.7434V44.1338C38.44 43.8086 38.1763 43.545 37.8511 43.545H30.1778V43.5449Z" fill="white"/>
<path id="Vector_3" d="M40.207 43.7712C40.3312 43.7712 40.4563 43.732 40.5629 43.6511L40.942 43.363C41.2009 43.1662 41.2514 42.7967 41.0546 42.5378C40.8578 42.2788 40.4884 42.2285 40.2294 42.4252L39.8503 42.7134C39.5914 42.9101 39.5409 43.2796 39.7377 43.5386C39.8535 43.691 40.0292 43.7712 40.207 43.7712Z" fill="white"/>
<path id="Vector_4" d="M42.0503 42.3706C42.1742 42.3706 42.2991 42.3316 42.4054 42.2511L42.4111 42.2468C42.6704 42.0504 42.7214 41.681 42.5249 41.4218C42.3285 41.1625 41.9591 41.1116 41.6999 41.308L41.6943 41.3123C41.435 41.5086 41.384 41.878 41.5805 42.1372C41.6963 42.2902 41.8722 42.3706 42.0503 42.3706Z" fill="white"/>
</g>
</g>
</g>
</g>
<defs>
<filter id="filter0_d_308_213" x="0" y="0" width="84" height="84" filterUnits="userSpaceOnUse" color-interpolation-filters="sRGB">
<feFlood flood-opacity="0" result="BackgroundImageFix"/>
<feColorMatrix in="SourceAlpha" type="matrix" values="0 0 0 0 0 0 0 0 0 0 0 0 0 0 0 0 0 0 127 0" result="hardAlpha"/>
<feOffset/>
<feGaussianBlur stdDeviation="8.5"/>
<feComposite in2="hardAlpha" operator="out"/>
<feColorMatrix type="matrix" values="0 0 0 0 0.00392157 0 0 0 0 0.537255 0 0 0 0 0.882353 0 0 0 0.3 0"/>
<feBlend mode="normal" in2="BackgroundImageFix" result="effect1_dropShadow_308_213"/>
<feBlend mode="normal" in="SourceGraphic" in2="effect1_dropShadow_308_213" result="shape"/>
</filter>
<linearGradient id="paint0_linear_308_213" x1="67" y1="17" x2="17" y2="67" gradientUnits="userSpaceOnUse">
<stop stop-color="#00BBFC"/>
<stop offset="0.894784" stop-color="#0075D6"/>
</linearGradient>
</defs>
</svg>
