<svg width="50" height="50" viewBox="0 0 50 50" fill="none" xmlns="http://www.w3.org/2000/svg">
<rect width="50" height="50" rx="25" fill="url(#paint0_linear_308_213)"/>
<path d="M37.411 13H15.0337C14.7084 13 14.4448 13.2637 14.4448 13.5889V20.0658C14.4448 20.391 14.7085 20.6546 15.0337 20.6546H17.6837C18.0089 20.6546 18.2725 20.3909 18.2725 20.0658V16.8277H34.1722V32.7274H18.2725V29.4893C18.2725 29.1641 18.0089 28.9005 17.6837 28.9005H15.0337C14.7084 28.9005 14.4448 29.1642 14.4448 29.4893V35.9662C14.4448 36.2914 14.7085 36.5551 15.0337 36.5551H37.411C37.7363 36.5551 37.9999 36.2914 37.9999 35.9662V13.5889C37.9999 13.2637 37.7363 13 37.411 13ZM36.8221 35.3773H15.6226V30.0782H17.0948V33.3163C17.0948 33.6415 17.3584 33.9051 17.6837 33.9051H34.7611C35.0863 33.9051 35.3499 33.6414 35.3499 33.3163V16.2388C35.3499 15.9136 35.0862 15.65 34.7611 15.65H17.6837C17.3584 15.65 17.0948 15.9137 17.0948 16.2388V19.4769H15.6226V14.1778H36.8222V35.3773H36.8221Z" fill="white"/>
<path d="M20.2623 30.9304C20.2623 31.154 20.3891 31.3585 20.5894 31.4579C20.6724 31.499 20.7619 31.5192 20.8511 31.5192C20.9775 31.5192 21.103 31.4786 21.2074 31.3992L29.3052 25.2463C29.4517 25.1349 29.5378 24.9615 29.5378 24.7774C29.5378 24.5934 29.4518 24.4199 29.3052 24.3086L21.2074 18.1557C21.0293 18.0203 20.7898 17.9975 20.5894 18.097C20.389 18.1964 20.2622 18.4008 20.2622 18.6245V21.8323H12.5889C12.2637 21.8323 12 22.096 12 22.4212V27.1337C12 27.4589 12.2637 27.7226 12.5889 27.7226H20.2622V30.9304H20.2623ZM13.1778 26.5449V26.5448V23.0101H20.8511C21.1764 23.0101 21.44 22.7464 21.44 22.4212V19.8116L27.9755 24.7775L21.44 29.7434V27.1338C21.44 26.8086 21.1763 26.545 20.8511 26.545H13.1778V26.5449Z" fill="white"/>
<path d="M23.207 26.7712C23.3312 26.7712 23.4563 26.732 23.5629 26.6511L23.942 26.363C24.2009 26.1662 24.2514 25.7967 24.0546 25.5378C23.8578 25.2788 23.4884 25.2285 23.2294 25.4252L22.8503 25.7134C22.5914 25.9101 22.5409 26.2796 22.7377 26.5386C22.8535 26.691 23.0292 26.7712 23.207 26.7712Z" fill="white"/>
<path d="M25.0503 25.3706C25.1742 25.3706 25.2991 25.3316 25.4054 25.2511L25.4111 25.2468C25.6704 25.0504 25.7214 24.681 25.5249 24.4218C25.3285 24.1625 24.9591 24.1116 24.6999 24.308L24.6943 24.3123C24.435 24.5086 24.384 24.878 24.5805 25.1372C24.6963 25.2902 24.8722 25.3706 25.0503 25.3706Z" fill="white"/>
<defs>
<linearGradient id="paint0_linear_308_213" x1="50" y1="0" x2="0" y2="50" gradientUnits="userSpaceOnUse">
<stop stop-color="#00BBFC"/>
<stop offset="0.894784" stop-color="#0075D6"/>
</linearGradient>
</defs>
</svg>
